<?xml version="1.0" encoding="UTF-8" standalone="no"?>
<!-- Created with Inkscape (http://www.inkscape.org/) -->

<svg
   version="1.1"
   id="svg1"
   width="1365.3333"
   height="1365.3333"
   viewBox="0 0 1365.3333 1365.3333"
   xmlns:xlink="http://www.w3.org/1999/xlink"
   xmlns="http://www.w3.org/2000/svg"
   xmlns:svg="http://www.w3.org/2000/svg">
  <defs
     id="defs1" />
  <g
     id="g1">
    <image
       width="1365.3333"
       height="1365.3333"
       preserveAspectRatio="none"
       xlink:href="Gemini_Generated_Image_3gergx3gergx3ger.png"
       id="image1"
       style="display:none" />
    <g
       id="g5">
      <path
         style="fill:#fdfdfd"
         d="M 0,682.66663 V 0 H 682.66663 1365.3333 V 682.66663 1365.3333 H 682.66663 0 Z m 862.66662,384.68917 v -13.9775 l 34.16288,-0.3559 34.16288,-0.3558 0.31655,-11.3333 c 0.17411,-6.2334 0.40081,-12.0834 0.50378,-13 0.1359,-1.2098 3.84265,-1.6667 13.52057,-1.6667 h 13.33333 v -7.3333 -7.3334 h 6.66667 6.66666 l 0.007,-6.3333 0.007,-6.33333 13.65964,-0.15115 13.65964,-0.15114 0.37998,-13.51552 0.3799,-13.51552 h 13.2867 13.2868 v -14 -14 h 13.3333 13.3334 v -13.33333 -13.33333 h 7.3333 7.3333 v -14 -14 h 6.6667 6.6667 v -13.2986 -13.29861 l 20.3333,-0.36806 20.3333,-0.36806 0.4064,-6.33333 0.4064,-6.33334 h 5.927 c 3.2598,0 6.0019,-0.6 6.0936,-1.33333 0.092,-0.73333 0.3166,-1.93333 0.5,-2.66667 0.1832,-0.73333 0.4083,-3.43333 0.5,-6 l 0.1666,-4.66666 h 6.6667 6.6667 v -13.33334 -13.33333 h 7.3333 7.3333 v -81.99999 -82 h -7.2636 -7.2637 l -0.403,-7 -0.403,-7 h -6 -6 l -0.6667,-6.66666 -0.6666,-6.66667 -6.286,-0.40445 -6.286,-0.40445 -0.3807,-12.92888 -0.3807,-12.92889 -14.3513,-0.37862 -14.3512,-0.37862 0.055,-87.8863 0.055,-87.88631 6.9631,-0.40173 6.9632,-0.40174 0.4006,-6.93265 0.4007,-6.93266 6.9327,-0.40068 6.9326,-0.40067 v -26.66667 -26.66666 l -7,-0.40302 -7,-0.40301 v -13.26365 -13.26366 h -28 -28 v 13.26028 13.26028 l -6.3333,0.40639 -6.3333,0.40639 -0.3607,26.92937 -0.3608,26.92936 7.0274,0.40397 7.0274,0.40396 0.403,7 0.403,7 h 6.597 6.597 v 47.33333 47.33333 h -6.6667 -6.6666 v -14 -14 h -6.6667 -6.6667 v -13.33333 -13.33333 h -6.6666 -6.6667 v -7.46202 -7.46202 l -6.6675,0.46202 -6.6675,0.46202 8e-4,-7 9e-4,-7 h -6.6667 -6.6666 v -6.66667 -6.66666 h -14.00001 -14 v -6.51116 c 0,-7.02912 -1.26691,-8.0956 -9.66666,-8.1373 -3.50869,-0.0174 -3.66667,-0.30545 -3.66667,-6.68488 v -6.66666 h -6.59361 -6.59361 l -0.40639,-6.33334 -0.40639,-6.33333 -7,-0.40301 -7,-0.40301 v -6.59699 -6.59699 h -6.66667 -6.66666 v -6.66666 -6.66667 h -6.66667 -6.66666 v -6.66667 -6.66666 h -27.33334 -27.33333 v -14 -14 H 684.66663 519.99997 v 14 14 h -20 -20 v 6.66666 6.66667 h -20.66666 -20.66667 v 6.66667 6.66666 h -6.66667 -6.66666 v 6.59699 6.59699 l -7,0.40301 -7,0.40301 -0.40352,6.26315 -0.40352,6.26314 -6.26315,0.40352 -6.26314,0.40352 -0.66667,6.66667 -0.66667,6.66667 h -6 -6 l -0.40301,7 -0.40301,7 h -13.26365 -13.26366 v 13.28668 13.28669 l -13.66666,0.37998 -13.66667,0.37998 -0.40301,7 -0.40302,7 h -6.59698 -6.59699 v 13.33333 13.33333 h -6.66667 -6.66666 v 14 14 h -6.66667 -6.66666 v -47.33333 -47.33333 h 6.66666 6.66667 v -7.33333 -7.33334 h 7.33333 7.33333 v -27.33333 -27.33333 h -7.33333 -7.33333 v -13.33333 -13.33334 h -27.33333 -27.33333 v 13.33334 13.33333 h -6.66667 -6.66667 v 27.33333 27.33333 h 6.59699 6.59699 l 0.40301,7 0.40301,7 6.33333,0.40639 6.33334,0.40639 v 87.92694 87.92694 h -6.66667 -6.66666 v 13.33333 13.33333 h -6.66667 -6.66667 v 7.33334 7.33333 h -6.66666 -6.66667 v 6.66667 6.66666 h -7.33333 -7.33334 v 82 81.99999 h 7.33334 7.33333 v 6.66667 6.66666 h 6.66667 6.66666 v 6.66667 6.66667 h 6.66667 6.66667 v 14 14 h 19.99999 20 v 13.33333 13.33333 h 7.33334 7.33333 v 14 14 h 6.66666 6.66667 v 13.33333 13.33333 h 13.28669 13.28669 l 0.37998,13.56486 0.37997,13.56486 12.66667,0.55574 c 6.96667,0.30566 12.81607,0.70087 12.99867,0.87826 0.1826,0.17738 0.7237,5.97311 1.20245,12.8794 0.47874,6.90628 1.52934,12.99769 2.33466,13.53646 0.80532,0.53877 6.71422,0.98877 13.13088,1 l 11.66667,0.0204 v 5.99998 6 h 6.66667 6.66666 v 7.3334 7.3333 h 14 14 v 13.3333 13.3334 h 34 34 v 13.1111 c 0,7.2111 0.4,13.5111 0.88889,14 0.48888,0.4889 80.58888,0.8889 177.99998,0.8889 H 862.66662 Z M 658.66663,863.33328 v -12.66666 h 46.66666 46.66667 v 12.66666 12.66667 h -46.66667 -46.66666 z m -28,-27.33333 v -13.33333 h 13.33333 13.33333 v 13.33333 13.33333 h -13.33333 -13.33333 z m 122.66375,-0.33333 -0.003,-13.66667 13.33624,0.42189 13.33623,0.42188 v 13.24478 13.24478 H 766.66662 753.33329 Z M 521.3333,759.33329 v -6 l -5.66666,-0.1579 c -3.11667,-0.0868 -6.11667,-0.0868 -6.66667,0 -0.55,0.0869 -1,-3.1421 -1,-7.17543 v -7.33334 h -6.59361 -6.59361 l -0.40639,-6.33333 -0.40639,-6.33333 -6.33333,-0.40639 -6.33334,-0.40639 v -19.92694 -19.92695 h 6.66667 6.66667 v -6.66666 -6.66667 h 6.66666 6.66667 v -6.66667 -6.66666 h 6.66667 6.66666 v -6.66667 -6.66667 h 19.92695 19.92694 l 0.40639,6.33334 0.40639,6.33333 6.33333,0.40639 6.33333,0.40639 v 6.59361 6.59361 h 6.66667 6.66666 v 6.66667 6.66666 h 6.66667 6.66667 v 19.92695 19.92694 l -6.33334,0.40639 -6.33333,0.40639 -0.40639,6.33333 -0.40638,6.33333 h -6.59362 -6.59361 v 7.33334 7.33333 h -6.66666 -6.66667 v 6 6 h -20 -20 z m 313.07304,-0.29488 -0.40639,-6.29487 -6.33333,0.39558 -6.33334,0.39558 v -7.43404 -7.43404 h -6.66666 -6.66667 v -6.66666 -6.66667 h -6.66666 -6.66667 v -20 -20 h 6.49489 6.49489 l 0.88437,-6.66666 0.88436,-6.66667 h 5.95408 5.95407 v -6.66667 -6.66666 h 6.66667 6.66667 v -6.66667 -6.66667 h 20.66666 20.66667 v 6.66667 6.66667 h 6.66666 6.66667 v 6.66666 6.66667 h 6.66667 6.66666 v 6.66667 6.66666 h 6.66667 6.66667 v 20 20 h -6.66667 -6.66667 v 6.66667 6.66666 h -6.66666 -6.66667 v 7.33334 7.33333 h -6.66667 -6.66666 v 6 6 h -20.59361 -20.59361 z"
         id="path8" />
      <path
         style="fill:#b8b8b8"
         d="m 507.15992,1066.6666 c 0,-7.7 0.22037,-10.85 0.48971,-7 0.26933,3.85 0.26933,10.15 0,14 -0.26934,3.85 -0.48971,0.7 -0.48971,-7 z m -67.99999,-26.6667 c 0,-7.7 0.22036,-10.85 0.4897,-7 0.26934,3.85 0.26934,10.15 0,14 -0.26934,3.85 -0.4897,0.7 -0.4897,-7 z m 491.61194,-11.4444 c 0.064,-1.5533 0.37992,-1.8692 0.80556,-0.8056 0.38516,0.9625 0.33779,2.1125 -0.10526,2.5556 -0.44306,0.443 -0.75819,-0.3445 -0.7003,-1.75 z m -519.69207,-9.2222 c 0.007,-4.4 0.2564,-6.0393 0.55315,-3.6428 0.29675,2.3965 0.29063,5.9965 -0.0136,8 -0.30423,2.0035 -0.54702,0.043 -0.53954,-4.3572 z m 136.90549,-1.6667 c -0.008,-4.95 -0.38657,-11.25 -0.84112,-14 l -0.82645,-4.99999 H 519.82551 493.3333 v -6.59361 -6.59362 l -6.33333,-0.40638 -6.33333,-0.40639 -0.40301,-7 -0.40302,-7 h -13.26365 -13.26365 v -13.33333 -13.33334 h -14 -14 v -13.19068 c 0,-14.51494 -0.17351,-14.80931 -8.72907,-14.80931 h -4.51098 l -0.37997,-13.66667 -0.37998,-13.66667 -10.66667,-0.10843 c -5.86666,-0.0596 -11.71666,-0.20964 -13,-0.33334 -2.0902,-0.20146 -2.33333,-2.01966 -2.33333,-17.44918 0,-9.47335 -0.36419,-18.17335 -0.80932,-19.33333 -0.58541,-1.52555 -2.61427,-2.10905 -7.33333,-2.10905 h -6.52402 V 699.40297 549.47266 l 7,-0.40301 7,-0.40302 0.36807,-20.33333 0.36806,-20.33333 h 6.58529 6.58529 l 0.37998,-13.66667 0.37998,-13.66666 6.33333,-0.40639 6.33334,-0.40639 v -5.92694 c 0,-4.9825 0.42492,-5.95351 2.66666,-6.09361 1.46667,-0.0917 3.26667,-0.31667 4,-0.5 0.73334,-0.18334 2.53333,-0.40834 4,-0.5 2.28889,-0.14306 2.66667,-1.11112 2.66667,-6.83334 v -6.66666 h 6.51116 c 7.01619,0 8.09514,-1.27205 8.1373,-9.59361 0.0169,-3.33817 0.4684,-3.6225 6.35154,-4 l 6.33333,-0.40639 0.40639,-6.33334 0.40639,-6.33333 6.26027,-0.0116 c 3.44316,-0.006 9.38068,-0.38644 13.19449,-0.84459 l 6.93422,-0.83301 0.39912,-6.1554 0.39912,-6.15541 13.66666,-0.37998 13.66667,-0.37997 v -6.62002 -6.62003 h 13.26365 13.26366 l 0.40301,-7 0.40301,-7 6.33333,-0.40638 6.33334,-0.40639 v 7.40639 7.40638 h 6.66666 6.66667 v 13.26366 13.26365 l 7,0.40301 7,0.40301 0.1095,6.66667 0.1095,6.66667 6.8905,0.40301 6.8905,0.40301 v 6.59699 6.59699 h 13.33333 13.33333 v 6.66666 6.66667 h 88.66666 88.66667 v -6.66667 -6.66666 h 7.33333 7.33333 v -6.59362 -6.59361 l 6.33333,-0.40638 6.33334,-0.40639 0.40301,-7 0.40301,-7 h 6.59699 6.59699 V 412.06965 398.806 l 7,-0.40301 7,-0.40301 0.39257,-6.66667 0.39258,-6.66667 15.60742,0.18471 c 26.86192,0.31791 24.06765,-0.4583 24.53437,6.81529 l 0.40639,6.33334 6.33333,0.40638 6.33333,0.40639 0.0204,4.92695 c 0.0112,2.70982 0.48166,5.65271 1.04541,6.53976 0.65243,1.02659 5.61263,1.75356 13.64625,2 l 12.62125,0.38718 0.66667,6.66667 0.66667,6.66666 6.26314,0.40353 6.26315,0.40352 0.40352,6.26314 0.40352,6.26315 7,0.40301 7,0.40301 v 6.59699 6.59699 h 6 6 v 5.13774 c 0,2.82576 0.38547,8.82576 0.85661,13.33333 l 0.85661,8.19559 h 13.10866 13.10866 l 0.36806,20.33333 0.36806,20.33334 6.14325,0.39862 6.1432,0.39862 0.8568,10.13588 c 0.4712,5.57474 0.8568,14.51248 0.8568,19.86166 v 9.72577 l 6.3333,0.40639 6.3333,0.40639 v 143.33332 143.33333 l -6.3333,0.40638 -6.3333,0.40639 -0.01,10.26028 c -0.01,5.64315 -0.392,14.31028 -0.8595,19.26028 l -0.85,9 h -13.14052 -13.14053 v 14 14 h -5.73333 c -3.15333,0 -6.45333,0.72 -7.33333,1.6 -1.01505,1.01505 -1.6,6.13333 -1.6,13.99999 v 12.4 h -13.33333 -13.33334 v 13.33334 13.33333 h -13.33333 -13.33333 l -0.0182,4.33333 c -0.0383,9.11482 -0.99785,10.33333 -8.1373,10.33333 h -6.51116 v 6.66667 6.66667 h -26.66666 -26.66667 v 13.99999 14 H 698.66663 547.99997 Z m 301.34799,-60.33332 v -13.33334 h 26.66667 26.66666 v -13.33333 c 0,-12.92919 0.0909,-13.33426 3,-13.36396 1.65,-0.0168 10.95,-0.13169 20.66667,-0.25521 l 17.66666,-0.22458 v -13.74479 -13.74479 h 7.33334 7.33333 v -6.66667 -6.66666 h 6.66667 6.66666 v -6.66667 -6.66666 h 6.66667 6.66666 v -20.59699 -20.59699 l 7,-0.40301 7,-0.40301 -0.36471,-102 -0.36471,-101.99999 -6.60004,-0.40179 -6.60003,-0.40179 -0.36859,-19.59821 -0.36858,-19.59821 -13,-0.38161 -13,-0.38162 v -7.28505 -7.28505 h -7.33333 -7.33334 v -6.66667 -6.66666 h -6.66666 -6.66667 v -6.66667 -6.66667 h -6.66667 -6.66666 v -6.66666 -6.66667 h -9.16667 c -5.04166,0 -11.04166,-0.375 -13.33333,-0.83333 l -4.16667,-0.83333 v -12.5 -12.5 H 705.33329 519.99997 v 12.66666 12.66667 l -9.66667,0.3229 c -5.31666,0.17759 -14.16666,0.32759 -19.66666,0.33333 l -10,0.0104 -0.37998,13.66666 -0.37998,13.66667 h -13.28669 -13.28668 v 14 14 l -12.33334,0.21004 c -6.78333,0.11553 -13.08333,0.18219 -14,0.14815 -1.26147,-0.0468 -1.66666,4.76435 -1.66666,19.78995 v 19.85185 h -13.33333 -13.33334 v 102.66666 102.66666 h 13.33334 13.33333 v 20.66667 20.66667 h 7.33333 7.33333 v 6.59361 6.59361 l 6.23787,0.40639 6.23787,0.40638 0.0955,6 0.0955,6 7,0.40302 7,0.40301 v 13.10814 c 0,15.73072 -1.64239,14.70821 23.66666,14.73429 l 17.66667,0.0182 v 13.33333 13.33333 h 26.66666 26.66667 v 13.33334 13.33333 h 143.99999 143.99999 z m -191.1111,-80.88889 c -0.48889,-0.48889 -0.88889,-6.78889 -0.88889,-14 v -13.11111 h 47.28823 47.28822 l 0.4286,-14.33333 0.4286,-14.33333 0.28317,14.33333 0.28318,14.33333 h 13.33333 13.33333 v -13.28505 -13.28505 l -13,-0.43589 -12.99999,-0.4359 13.71177,-0.27905 13.71177,-0.27906 -0.37844,14.33334 -0.37844,14.33333 -13.61894,0.37945 -13.61894,0.37945 -0.43534,12.95388 -0.43534,12.95388 -0.27905,-12.99999 -0.27905,-13 h -46.75522 -46.75522 l 0.42189,13.33623 c 0.23204,7.33493 0.37188,13.33493 0.31077,13.33334 -0.0611,-0.002 -0.51111,-0.40291 -1,-0.8918 z m 5.52778,-0.0219 c 0.9625,-0.38516 2.1125,-0.33779 2.55556,0.10527 0.44305,0.44305 -0.34445,0.75818 -1.75,0.70029 -1.55326,-0.064 -1.8692,-0.37992 -0.80556,-0.80556 z m 19.91667,-0.0852 c 8.98333,-0.23067 23.68333,-0.23067 32.66666,0 8.98333,0.23068 1.63333,0.41941 -16.33333,0.41941 -17.96667,0 -25.31667,-0.18873 -16.33333,-0.41941 z m 50.74999,0.0852 c 0.9625,-0.38516 2.1125,-0.33779 2.55556,0.10527 0.44305,0.44305 -0.34445,0.75818 -1.75,0.70029 -1.55326,-0.064 -1.8692,-0.37992 -0.80556,-0.80556 z m 6.58334,-0.0302 c 1.65,-0.3178 4.35,-0.3178 6,0 1.65,0.31781 0.3,0.57783 -3,0.57783 -3.3,0 -4.65,-0.26002 -3,-0.57783 z M 630.22218,849.77773 c -0.48888,-0.48889 -0.88888,-7.08889 -0.88888,-14.66667 v -13.77778 l 14.33333,0.2812 14.33333,0.2812 -13.66667,0.43211 -13.66666,0.43212 v 13.23477 13.23478 l 11.66667,0.4444 11.66666,0.4444 -11.44444,0.27418 c -6.29445,0.15079 -11.84445,-0.12582 -12.33334,-0.61471 z m -109.98188,-90.11111 0.24033,-7 0.49939,6.33333 0.49939,6.33334 h 19.85389 19.85389 l 0.49939,-6.33334 0.49939,-6.33333 0.24033,7 0.24033,7 H 541.3333 519.99997 Z m 324.82296,6.00699 c 6.08482,-0.24762 15.68482,-0.24624 21.33333,0.003 5.64851,0.24931 0.67002,0.45191 -11.06331,0.45022 -11.73333,-0.002 -16.35484,-0.20567 -10.27002,-0.45329 z M 506.66664,746.66662 v -6.66666 h -6.66667 -6.66667 v -6.66667 -6.66667 h -6.66666 -6.66667 l 0.29592,-21 0.29592,-20.99999 0.40509,20.26168 0.40509,20.26168 6.29899,0.40498 6.29899,0.40499 0.40639,6.33333 0.40639,6.33333 h 6.59361 6.59361 v 7.33334 c 0,4.03333 -0.3,7.33333 -0.66667,7.33333 -0.36666,0 -0.66666,-3 -0.66666,-6.66667 z m 68.24664,-0.33333 -0.24665,-7.66667 h 6.59361 6.59362 l 0.40638,-6.33333 0.40639,-6.33333 6.29899,-0.40499 6.29899,-0.40498 0.42156,-19.92986 0.42157,-19.92985 -0.0539,20.33484 -0.0539,20.33484 -6.33333,0.40638 -6.33333,0.40639 v 6.59361 6.59362 h -6.59699 -6.59699 l -0.4897,7 -0.4897,7 z m 236.08667,-7.28834 c 2.01667,-0.3055 5.31667,-0.3055 7.33333,0 2.01667,0.3055 0.36667,0.55545 -3.66666,0.55545 -4.03333,0 -5.68333,-0.24995 -3.66667,-0.55545 z m 81.33333,0 c 2.01667,-0.3055 5.31667,-0.3055 7.33333,0 2.01667,0.3055 0.36667,0.55545 -3.66666,0.55545 -4.03334,0 -5.68334,-0.24995 -3.66667,-0.55545 z m -98.41344,-14.10631 c -0.3647,-0.95039 -0.47803,-10.40039 -0.25184,-21 l 0.41125,-19.27201 0.29369,20.26365 0.29368,20.26365 7,0.4897 7,0.48971 -7.04185,0.24664 c -4.72629,0.16554 -7.25988,-0.32156 -7.70493,-1.48134 z m 115.04575,0.78666 6.96564,-0.52899 0.42158,-19.93301 0.42157,-19.93302 -0.0539,20.33484 -0.0539,20.33484 -7.33333,0.12716 -7.33333,0.12716 z m -415.06966,-47.72534 0.10404,-6.66667 6.26315,-0.40352 6.26314,-0.40352 0.40352,-6.26314 0.40352,-6.26315 6.33334,-0.40639 6.33333,-0.40639 v -6.59361 -6.59361 h 21.33333 21.33333 v 6.66667 6.66666 h 6.66667 6.66667 v 6.59362 6.59361 l 6.33333,0.40639 6.33333,0.40638 0.10404,6.66667 0.10404,6.66667 -0.50705,-6.33334 -0.50705,-6.33333 h -6.59699 -6.59699 v -6.59361 -6.59361 l -6.33333,-0.40639 -6.33333,-0.40639 -0.40639,-6.33333 -0.40639,-6.33334 H 541.26025 521.3333 v 6.66667 6.66667 h -6.66666 -6.66667 v 6.66666 6.66667 h -6.59699 -6.59698 l -0.50706,6.33333 -0.50705,6.33334 z m 314.63964,-4 c 0.11176,-2.2742 1.11221,-2.6867 6.79771,-2.8028 l 6.66667,-0.13614 -6.24972,0.53911 c -4.48272,0.38669 -6.40466,1.17913 -6.79771,2.8028 -0.38773,1.60169 -0.50967,1.48384 -0.41695,-0.40297 z m 83.79771,-2.95501 c 2.01667,-0.3055 5.31667,-0.3055 7.33333,0 2.01667,0.3055 0.36667,0.55546 -3.66666,0.55546 -4.03334,0 -5.68334,-0.24996 -3.66667,-0.55546 z m -71.12341,-12.79231 c 0.59659,-0.59436 4.01842,-0.88477 7.60407,-0.64537 l 6.51934,0.43528 -7.60406,0.64537 c -4.18224,0.35496 -7.11595,0.15908 -6.51935,-0.43528 z m 57.79008,-0.54102 c 2.01666,-0.3055 5.31666,-0.3055 7.33333,0 2.01667,0.3055 0.36667,0.55546 -3.66667,0.55546 -4.03333,0 -5.68333,-0.24996 -3.66666,-0.55546 z m -33.93669,-13.37133 c 6.08482,-0.24762 15.68482,-0.24624 21.33333,0.003 5.64851,0.2493 0.67002,0.4519 -11.06331,0.45022 -11.73333,-0.002 -16.35484,-0.20567 -10.27002,-0.45329 z M 397.33331,1006.05 v -5.95 l -12.33333,-0.43997 -12.33334,-0.43998 13,-0.27672 13,-0.27672 v 6.66669 c 0,3.6666 -0.3,6.6666 -0.66666,6.6666 -0.36667,0 -0.66667,-2.6774 -0.66667,-5.9499 z m 579.69051,-7.01637 c 2.39647,-0.29675 5.99647,-0.29062 8,0.0136 2.00353,0.30423 0.0428,0.54703 -4.35721,0.53954 -4.4,-0.007 -6.03926,-0.2564 -3.64279,-0.55315 z m 21.39263,-13.82386 0.41651,-14.54316 14.25014,0.2812 14.2502,0.28119 -13.6667,0.43212 -13.66666,0.43211 v 13.208 c 0,7.2644 -0.45,13.48783 -1,13.82985 -0.55,0.34201 -0.81257,-5.92258 -0.58349,-13.92131 z m -629.08314,-8.48224 v -4.60575 l -9,-0.46644 -9,-0.46644 9.66667,-0.26114 9.66666,-0.26115 v 5.33333 c 0,2.93333 -0.3,5.33333 -0.66666,5.33333 -0.36667,0 -0.66667,-2.07258 -0.66667,-4.60574 z m -26.09497,-6.49428 c -0.37286,-0.97168 -0.49936,-7.42167 -0.28111,-14.33333 l 0.39683,-12.56664 0.6563,14.33614 c 0.36096,7.88488 0.48746,14.33488 0.28111,14.33334 -0.20635,-0.002 -0.68026,-0.79783 -1.05313,-1.76951 z m -26.96164,-39.16363 -0.27672,-13.59698 -7,-0.48971 -7,-0.4897 7.04185,-0.24664 c 4.80187,-0.16819 7.25749,0.31533 7.71979,1.52004 0.37286,0.97168 0.47856,7.42168 0.23487,14.33334 l -0.44306,12.56664 z m 736.2745,-12.40301 c 0.1077,-1.52497 2.0383,-2.02835 8.1284,-2.11935 l 7.987,-0.11935 -7.5812,0.51667 c -4.2892,0.29232 -7.8188,1.21261 -8.1284,2.11935 -0.3009,0.88148 -0.4836,0.70268 -0.4058,-0.39732 z M 288.49327,875.99995 c 0,-7.7 0.22037,-10.85 0.4897,-7 0.26934,3.85 0.26934,10.15 0,14 -0.26933,3.85 -0.4897,0.7 -0.4897,-7 z m 791.91983,0.66666 c 0.01,-4.4 0.2564,-6.03925 0.5531,-3.64278 0.2968,2.39646 0.2907,5.99646 -0.014,8 -0.3042,2.00353 -0.547,0.0428 -0.5395,-4.35722 z m 41.3015,-21.33333 c 0.01,-3.66666 0.269,-5.00841 0.5754,-2.98166 0.3065,2.02675 0.2983,5.02675 -0.018,6.66666 -0.3164,1.63992 -0.5672,-0.0183 -0.5572,-3.685 z m 13.2882,-16 c 0.015,-2.93333 0.2879,-3.97633 0.6068,-2.31778 0.3189,1.65855 0.3068,4.05855 -0.027,5.33333 -0.3337,1.27478 -0.5947,-0.0822 -0.5799,-3.01555 z M 235.0662,827.99995 c 0,-4.03333 0.24996,-5.68333 0.55546,-3.66667 0.3055,2.01667 0.3055,5.31667 0,7.33334 -0.3055,2.01666 -0.55546,0.36666 -0.55546,-3.66667 z m 27.35731,-86.94494 c 0.29045,-36.81972 0.10479,-73.71972 -0.41258,-82 l -0.94068,-15.05505 h -6.53513 -6.53513 V 630.66663 617.3333 h -5.93032 -5.93033 l -0.4897,7 -0.4897,7 -0.24664,-7.86232 -0.24665,-7.86231 10.20117,0.86231 c 5.61065,0.47427 20.91064,0.86232 34,0.86232 h 23.79883 v 13.33333 13.33333 h 7.33333 7.33333 v 75.33333 75.33333 h -7.33333 -7.33333 v 6.66667 6.66666 h -20.38561 -20.38562 z m 818.55959,66.15033 c -0.4866,-0.4866 -0.5253,-3.50688 -0.086,-6.71172 l 0.7986,-5.827 h -6.8479 -6.8479 v -82 -81.99999 h 6 6 v -6.66667 -6.66666 h 14.0089 14.0089 l -0.3422,94.99999 -0.3422,95 -12.7328,0.37839 c -7.0029,0.20811 -13.1308,-0.0197 -13.6174,-0.50634 z m 82.3105,-81.20538 c -2e-4,-45.46667 0.1673,-64.25993 0.3721,-41.76281 0.2049,22.49712 0.205,59.69712 3e-4,82.66666 -0.2047,22.96955 -0.3723,4.56281 -0.3724,-40.90385 z M 207.11493,653.33329 c 0,-5.5 0.23536,-7.75 0.52302,-5 0.28765,2.75 0.28765,7.25 0,10 -0.28766,2.75 -0.52302,0.5 -0.52302,-5 z m 927.78457,-28.99999 -0.2329,-7 h -6.6667 -6.6666 l 0.279,-13.66667 0.2791,-13.66667 0.4359,13 0.4359,13 h 5.9935 c 6.886,0 7.6468,1.05002 6.8936,9.51413 -0.5119,5.75282 -0.5205,5.73935 -0.7508,-1.18079 z m 4.7671,5.39235 c 1.65,-0.3178 4.35,-0.3178 6,0 1.65,0.31781 0.3,0.57783 -3,0.57783 -3.3,0 -4.65,-0.26002 -3,-0.57783 z m -851.35067,-169.39234 -0.31595,-48.33333 7.66667,0.24664 7.66667,0.24664 -6.98324,0.48912 -6.98323,0.48912 -0.36748,47.59757 -0.36749,47.59757 z m 778.35067,0.40301 v -47.26365 l -7,-0.48971 -7,-0.4897 7.6667,-0.24664 7.6666,-0.24664 v 47.99999 c 0,26.4 -0.3,48 -0.6666,48 -0.3667,0 -0.6667,-21.26864 -0.6667,-47.26365 z m -750.17333,5.93032 c 0,-7.7 0.22036,-10.85 0.4897,-7 0.26934,3.85 0.26934,10.15 0,14 -0.26934,3.85 -0.4897,0.7 -0.4897,-7 z m 13.40267,-20.66667 0.10404,-6.66666 13.66953,-0.0736 13.66954,-0.0736 -13.26812,0.45286 -13.26811,0.45286 -0.50546,6.28744 -0.50546,6.28744 z m 687.78896,-6.95677 c 2.0268,-0.30647 5.0268,-0.29828 6.6667,0.0182 1.6399,0.31648 -0.018,0.56723 -3.685,0.55722 -3.6667,-0.01 -5.0084,-0.26895 -2.9817,-0.57542 z m -5.2854,-7.04323 c 0,-4.03333 0.2499,-5.68333 0.5554,-3.66666 0.3055,2.01666 0.3055,5.31666 0,7.33333 -0.3055,2.01667 -0.5554,0.36667 -0.5554,-3.66667 z m -13.19219,-7.18079 c -0.38992,-1.0161 -0.47591,-4.4661 -0.1911,-7.66667 l 0.51784,-5.8192 0.23295,6.90726 c 0.20279,6.01321 0.6213,6.98206 3.2329,7.48509 l 3,0.57783 -3.0418,0.18158 c -1.673,0.0999 -3.36087,-0.64979 -3.75079,-1.66589 z M 252.35165,412.37653 c 2.02675,-0.30647 5.02675,-0.29828 6.66667,0.0182 1.63991,0.31649 -0.0183,0.56724 -3.685,0.55723 -3.66667,-0.01 -5.00842,-0.26895 -2.98167,-0.57543 z m 843.98165,0.002 c 2.0166,-0.3055 5.3166,-0.3055 7.3333,0 2.0167,0.3055 0.3667,0.55546 -3.6667,0.55546 -4.0333,0 -5.6833,-0.24996 -3.6666,-0.55546 z m -711.7707,-7.71166 0.10404,-6.66666 5.33334,-0.11402 5.33333,-0.11401 -4.93287,0.52073 c -4.82735,0.50959 -4.94365,0.65463 -5.43737,6.78068 l -0.50451,6.25995 z m 13.33333,-13.33333 0.10405,-6.66667 6.26314,-0.40352 6.26315,-0.40352 0.40352,-6.26314 0.40352,-6.26315 6.66667,-0.10404 6.66666,-0.10404 -6.33333,0.50705 -6.33333,0.50706 v 6.59698 6.59699 h -6.59699 -6.59699 l -0.50705,6.33333 -0.50706,6.33334 z m 563.11956,6.39032 c 1.65855,-0.31893 4.05855,-0.30682 5.33333,0.0269 1.27478,0.33372 -0.0822,0.59466 -3.01554,0.57986 -2.93334,-0.0148 -3.97634,-0.28785 -2.31779,-0.60677 z m 78.27531,-26.05606 0.043,-27.00092 6.2874,-0.40452 6.2875,-0.40451 0.4313,-13.59549 0.4314,-13.59548 0.2812,14.33333 0.2812,14.33333 h -6.6391 -6.639 l -0.4035,26.66759 -0.4034,26.6676 z m 82.3445,0.0687 -0.302,-26.26365 -7,-0.4897 -7,-0.4897 7.0418,-0.24665 c 4.6854,-0.1641 7.2612,0.32483 7.6972,1.46108 0.3604,0.93925 0.4775,13.08925 0.2602,27 l -0.3951,25.29228 z m -164.30202,16.26366 c 0,-2.31111 -0.88889,-2.66667 -6.66667,-2.66667 h -6.66667 v -6.59699 -6.59698 l -6.33333,-0.50706 -6.33333,-0.50705 6.66666,0.10404 6.66667,0.10404 0.40639,6.33333 0.40639,6.33334 h 6.59361 c 6.14429,0 6.59361,0.22714 6.59361,3.33333 0,1.83333 -0.3,3.33333 -0.66667,3.33333 -0.36666,0 -0.66666,-1.2 -0.66666,-2.66666 z M 427.66664,357.72567 c 1.65,-0.31781 4.35,-0.31781 6,0 1.65,0.3178 0.3,0.57782 -3,0.57782 -3.3,0 -4.65,-0.26002 -3,-0.57782 z m 10.79007,-6.51658 0.45673,-7.20911 20.8766,0.29592 20.8766,0.29591 -20.33333,0.40548 -20.33334,0.40548 v 5.88658 c 0,3.23762 -0.45,6.16609 -1,6.50771 -0.55,0.34162 -0.79447,-2.62297 -0.54326,-6.58797 z m 478.40075,6.43302 c -0.34826,-0.5635 1.86633,-0.83176 4.92131,-0.59613 8.97249,0.69203 10.0644,1.29993 2.6332,1.466 -3.80672,0.0851 -7.20625,-0.30638 -7.55451,-0.86987 z m -679.19081,-13.2638 c 2.01667,-0.3055 5.31667,-0.3055 7.33334,0 2.01666,0.3055 0.36666,0.55545 -3.66667,0.55545 -4.03333,0 -5.68333,-0.24995 -3.66667,-0.55545 z m 68.69054,-0.0113 c 2.39647,-0.29674 5.99647,-0.29062 8,0.0136 2.00354,0.30423 0.0428,0.54703 -4.35721,0.53954 -4.4,-0.007 -6.03925,-0.2564 -3.64279,-0.55315 z m 596.85013,-0.88115 c -0.38992,-1.0161 -0.47591,-4.4661 -0.1911,-7.66666 0.51712,-5.81108 0.51817,-5.80953 0.75078,1.11111 l 0.23295,6.93032 7,0.4897 7,0.48971 -7.04185,0.24664 c -4.94937,0.17335 -7.25251,-0.30233 -7.75078,-1.60082 z m -382.92615,-26.48587 -0.2812,-14.33333 164.99999,0.32804 164.99999,0.32803 -164.28674,0.34388 -164.28674,0.34387 -0.43205,13.66142 -0.43206,13.66142 z"
         id="path7" />
      <path
         style="fill:#f20605"
         d="m 508.65149,1051.6715 c -0.33104,-0.9194 -0.76305,-6.7716 -0.96003,-13.0049 l -0.35816,-11.3333 -26.66666,-0.6667 -26.66667,-0.6667 -0.66666,-6.6666 -0.66667,-6.6667 -13.66667,-0.38 -13.66666,-0.3799 v -5.1235 c 0,-2.8179 -0.7799,-5.7707 -1.73312,-6.5618 -0.95321,-0.79106 -6.80321,-1.61453 -13,-1.82989 l -11.26688,-0.39157 -0.40136,-5.33333 c -0.46952,-6.23916 -3.04272,-8.66667 -9.18681,-8.66667 -4.10466,0 -4.41183,-0.30717 -4.41183,-4.41183 0,-6.14409 -2.4275,-8.71729 -8.66667,-9.18681 l -5.33333,-0.40136 -0.66667,-12.66666 -0.66666,-12.66667 -12.66667,-0.66667 -12.66666,-0.66666 -0.38718,-12.62126 c -0.24645,-8.03362 -0.97342,-12.99382 -2,-13.64625 -0.88705,-0.56374 -3.82995,-1.03418 -6.53977,-1.04541 l -4.92694,-0.0204 -0.40639,-6.33334 -0.40639,-6.33333 -6.33333,-0.40639 -6.33334,-0.40639 v -19.21336 c 0,-17.91426 -0.18216,-19.31086 -2.69422,-20.65527 -1.48182,-0.79305 -3.25423,-1.0958 -3.93868,-0.67279 -0.68445,0.42302 -2.80299,0.37795 -4.70787,-0.10014 -3.12173,-0.78351 -3.42374,-1.41233 -3.06132,-6.37413 0.39292,-5.37931 0.52335,-5.51473 5.71852,-5.93755 7.1392,-0.58103 8.68357,-2.18006 8.68357,-8.99085 v -5.76368 l 6.33334,-0.40639 6.33333,-0.40639 0.66667,-6 0.66666,-6 6,-0.66667 6,-0.66666 V 725.99996 631.3333 l -6,-0.66667 c -5.91121,-0.6568 -6.00625,-0.74559 -6.42243,-6 -0.51771,-6.53622 -1.4115,-7.5106 -7.8431,-8.55033 l -5.0678,-0.81925 -0.66667,-12.64854 -0.66666,-12.64855 -6.66667,-0.66666 -6.66666,-0.66667 v -26 -26 l 6.66666,-0.66666 6.66667,-0.66667 0.37998,-12.86428 0.37998,-12.86428 6.28668,-1.14554 6.28669,-1.14553 0.38718,-12.61144 c 0.2464,-8.02591 0.9736,-12.98412 2,-13.63643 0.88705,-0.56375 3.86282,-1.03418 6.61282,-1.04541 l 5,-0.0204 v -12.52401 c 0,-13.79094 0.21824,-14.14265 8.77572,-14.14265 4.37406,0 4.55843,-0.20138 4.57803,-5 0.0277,-6.78093 1.12397,-8.06223 7.33022,-8.56734 5.23194,-0.42582 5.32657,-0.52757 5.98269,-6.43266 0.65614,-5.90518 0.75069,-6.00684 5.9831,-6.43269 6.97668,-0.5678 8.68357,-2.18643 8.68357,-8.23454 v -5.00737 l 13,-1.1627 13,-1.1627 0.66667,-6 0.66666,-6 6,-0.66667 6,-0.66666 0.66667,-6 c 0.65963,-5.93665 0.7277,-6.00815 6.44667,-6.77137 6.5145,-0.86938 8.17012,-2.65828 8.19958,-8.85965 l 0.0204,-4.29769 19.66667,-0.36898 19.66666,-0.36898 L 479.70657,368 c 1.09034,-9.73674 0.47817,-9.33333 14.16328,-9.33333 13.52566,0 14.05796,0.33519 14.1119,8.88624 0.0166,2.63581 0.9148,2.96002 10.35154,3.73657 5.68334,0.46768 11.53334,0.96887 13,1.11376 2.11804,0.20923 2.80383,1.49785 3.33333,6.26342 0.36667,3.3 0.36667,9 0,12.66667 L 533.99996,398 l -13,0.38161 -13,0.38162 v 6.57174 6.57174 l -13.66667,0.37997 -13.66666,0.37998 -0.66667,5.98369 c -0.64411,5.78127 -0.84708,6.01546 -6,6.92316 -2.93333,0.51671 -8.78333,0.97405 -13,1.01631 l -7.66666,0.0768 v 5.85735 c 0,6.47388 -1.17632,7.47598 -8.77572,7.47598 -4.19685,0 -4.55762,0.32357 -4.55762,4.08766 0,7.0828 -2.03839,9.24568 -8.71357,9.24568 h -5.95309 v 6.04184 c 0,6.69604 -1.81348,8.11099 -10.92334,8.52281 -1.68136,0.076 -2.36119,1.54666 -2.66666,5.76868 -0.40897,5.65235 -0.42516,5.66835 -6.41,6.33333 l -6,0.66667 -0.66667,13.33333 -0.66666,13.33333 -6.29899,0.40499 -6.299,0.40498 -0.36767,20.26168 -0.36768,20.26168 -7,0.40302 -7,0.40301 v 149.93031 149.93031 h 5.73334 c 3.15333,0 6.45333,0.72 7.33333,1.6 1.08262,1.08263 1.6,7.28396 1.6,19.17783 0,20.43157 -0.702,19.573 14.93196,18.2623 7.20025,-0.60364 9.59486,-0.3555 10.50943,1.08905 0.65144,1.02895 1.19363,7.42082 1.20486,14.20415 l 0.0204,12.33334 h 5.06666 c 7.45526,0 8.26667,1.53119 8.26667,15.59999 v 12.4 h 14 14 v 13.33334 13.33333 h 13.26365 13.26365 l 0.40302,7 0.40301,7 6,0.66666 6,0.66667 0.40639,6.33333 0.40638,6.33334 h 26.41916 26.41915 l 0.82645,5.00001 c 0.45455,2.75 0.83305,9.05 0.84112,14 l 0.0147,9 h 150.62001 150.62001 l 0.37998,-13.6667 0.37998,-13.66665 26.33333,-0.36152 26.33333,-0.36152 v -6.63848 -6.63848 h 6.51116 c 7.13945,0 8.09901,-1.21851 8.1373,-10.33333 l 0.0182,-4.33333 h 13.33333 13.33333 v -13.33333 -13.33334 h 13.33334 13.33333 v -12.4 c 0,-7.86666 0.58495,-12.98494 1.6,-13.99999 0.88,-0.88 4.18,-1.6 7.33333,-1.6 h 5.73333 v -14 -14 h 13.33334 13.33331 l 0.1697,-4.33334 c 0.093,-2.38333 0.5433,-10.93333 1,-18.99999 l 0.8303,-14.66667 6,-0.66667 6,-0.66666 V 705.33329 561.99997 l -6,-0.66667 -6,-0.66667 -0.8303,-14.66666 c -0.4567,-8.06667 -0.9067,-16.91667 -1,-19.66667 -0.1618,-4.76952 -0.3797,-5 -4.7273,-5 -8.94721,0 -8.77571,0.4197 -8.77571,-21.47598 v -19.85735 h -12.58798 c -6.92339,0 -12.92618,-0.54723 -13.33955,-1.21607 -0.41336,-0.66883 -1.13647,-6.63862 -1.60691,-13.26619 l -0.85534,-12.05012 -5.47178,-0.40048 -5.47177,-0.40047 -0.40365,-6.26609 -0.40364,-6.26609 -6.92969,-0.40058 -6.92969,-0.40057 -0.40639,-6.33334 -0.40639,-6.33333 h -5.90154 c -6.33748,0 -6.71864,-0.5024 -7.58674,-10 l -0.36561,-4 -11.93056,-0.38909 c -6.56182,-0.214 -12.71182,-1.03747 -13.66667,-1.82993 -0.95485,-0.79246 -1.7361,-3.73449 -1.7361,-6.53785 v -5.09702 l -6.33333,-0.40639 -6.33333,-0.40638 -0.40639,-6.33334 c -0.46664,-7.27225 2.12878,-6.53285 -23.97139,-6.82918 -16.60058,-0.18848 -17.56511,-0.65849 -17.6018,-8.5772 l -0.0204,-4.40639 -6.33333,0.40639 -6.33334,0.40638 -0.66666,12.66667 -0.66667,12.66667 -6,0.66666 -6,0.66667 -0.38145,12.98667 c -0.4404,14.99326 0.54164,14.10826 -16.28521,14.67595 l -10,0.33738 -0.33738,10 c -0.18555,5.5 -0.64806,11.35428 -1.02779,13.00951 l -0.69041,3.0095 -88.30554,-0.34284 -88.30554,-0.34284 -0.44227,-4.66131 c -0.58966,-6.21468 -2.32411,-8.00536 -7.75399,-8.00536 -3.64269,0 -4.79259,-0.67379 -5.83674,-3.42013 -0.71518,-1.88107 -1.30033,-4.88107 -1.30033,-6.66667 0,-2.90206 -0.5694,-3.24653 -5.36634,-3.24653 -4.53356,0 -5.56812,-0.53075 -6.66666,-3.42013 -0.71519,-1.88107 -1.30034,-4.79583 -1.30034,-6.47723 0,-2.51371 -0.99615,-3.2685 -5.60442,-4.24653 -5.24791,-1.11378 -5.69677,-1.57113 -7.05601,-7.18944 -1.33946,-5.53655 -1.80772,-6.03309 -6.06224,-6.4284 -2.53586,-0.23561 -5.21066,-1.01296 -5.94399,-1.72744 -0.73333,-0.71448 -1.63333,-6.51388 -2,-12.88757 l -0.66667,-11.58853 -4.71195,-0.76065 c -6.76765,-1.0925 -7.95471,-2.19598 -7.95471,-7.39461 0,-4.88104 -0.3854,-5.18177 -8.33334,-6.50266 l -5,-0.83097 v -12.58085 c 0,-11.94321 0.15205,-12.61757 3,-13.30547 1.65,-0.39855 69,-0.55998 149.66666,-0.35874 l 146.66666,0.36589 0.40269,6.24268 0.40268,6.24267 6.93065,1.1002 6.93065,1.10021 0.38435,12.39796 0.38434,12.39796 5.58031,-0.40751 c 5.40838,-0.39495 5.61463,-0.58209 6.69412,-6.07417 l 1.11381,-5.66666 h 13.25486 c 13.15514,0 13.25487,0.0244 13.25487,3.24653 0,1.78559 0.58515,4.78559 1.30033,6.66667 1.26258,3.32082 1.64798,3.42013 13.27292,3.42013 h 11.97258 l 0.83097,5 c 1.31883,7.93548 1.50842,8.15108 7.55057,8.58645 5.73788,0.41344 5.73946,0.41503 6.40596,6.41355 l 0.66667,6 6,0.66666 6,0.66667 0.40075,6.19546 c 0.47611,7.36035 1.32279,7.75935 16.52258,7.78633 l 10.25667,0.0182 0.41,5.66403 c 0.40807,5.6374 0.44134,5.67062 7.07666,7.06477 6.63884,1.3949 6.66945,1.42552 7.33333,7.33597 0.66531,5.92308 0.67895,5.93659 6.66667,6.60189 l 6,0.66667 0.66667,6 0.66666,6 6.33333,0.40639 6.3333,0.40639 0.012,6.26027 c 0.01,3.44316 0.39,9.41028 0.8524,13.26028 l 0.8408,7 h 5.6716 c 6.9829,0 7.2903,0.67293 7.2903,15.95766 v 11.73956 l 5.9358,0.89012 c 5.701,0.85492 5.9793,1.11145 7.0356,6.48473 1.0673,5.4289 1.2765,5.61434 7.0642,6.26126 l 5.9644,0.66667 0.3716,19.27832 c 0.2578,13.37321 0.8705,19.59522 2,20.31291 0.8956,0.56903 3.8014,1.04379 6.4573,1.05502 l 4.8289,0.0204 0.752,17 c 0.6115,13.82593 0.4838,30.499 -0.2698,35.20822 -0.077,0.48118 -3.1435,1.28797 -6.8145,1.79285 l -6.6745,0.91798 0.3412,108.20714 0.3411,108.20713 6.1955,0.40076 c 7.2979,0.47207 7.3406,0.57266 6.719,15.82094 l -0.4438,10.88836 -6.5337,0.89861 -6.5337,0.89861 -0.3683,19.54636 -0.3683,19.54636 -6,0.66666 c -5.1989,0.57766 -6.0498,1.1117 -6.3733,4 -0.9652,8.61985 -1.3777,9.16169 -7.2996,9.59031 l -5.6604,0.40969 -0.7827,12.38263 c -0.4304,6.81044 -1.3349,12.93496 -2.01,13.61004 -0.6751,0.67508 -6.6229,1.40289 -13.2174,1.61737 l -11.98993,0.38996 -0.66666,12.66667 -0.66667,12.66666 -6,0.66667 -6,0.66667 -0.66667,6 c -0.65962,5.93664 -0.7277,6.00814 -6.44667,6.77136 -6.51705,0.86972 -8.17013,2.65795 -8.19957,8.8699 -0.0241,5.08291 -1.18972,5.52101 -16.02042,6.02136 l -10,0.33737 -0.40352,6.26315 -0.40352,6.2632 -6.26315,0.4035 -6.26314,0.4035 -0.40639,6.3333 c -0.22351,3.4834 -0.52351,6.4569 -0.66667,6.608 -0.14315,0.151 -15.26027,0.601 -33.59361,1 l -33.33333,0.7254 -0.66666,12.6666 -0.66667,12.6667 -176.37329,0.3382 c -140.41097,0.2693 -176.49601,0 -176.97517,-1.3333 z M 238.33332,820.41418 c -1.98005,-0.51744 -2.33643,-2.26046 -2.35375,-11.51199 -0.0112,-5.99623 -0.47109,-11.61089 -1.0219,-12.47702 -0.55082,-0.86614 -3.69163,-1.76614 -6.97959,-2 l -5.97809,-0.42522 v -67.33333 -67.33333 l 5.56282,-0.40492 c 3.05955,-0.22271 6.18446,-1.15395 6.94424,-2.06943 0.75978,-0.91548 1.55651,-7.03326 1.77051,-13.59508 l 0.38909,-11.93056 h 5.33334 5.33333 l 0.40352,6.26314 0.40352,6.26314 6.26315,0.40353 6.26314,0.40352 0.92868,8.66666 c 1.0966,10.23373 0.96891,129.49937 -0.15417,144 l -0.77451,10 -4.66667,0.40795 c -5.36891,0.46935 -7.99999,3.22242 -7.99999,8.3709 0,4.63245 -3.10853,6.01587 -9.66667,4.30204 z m 870.16318,-0.74756 c -0.6515,-0.93342 -0.8699,-45.66137 -0.4966,-101.66666 l 0.6667,-100 6.2842,-0.40438 6.2842,-0.40438 0.3825,13.07105 c 0.3756,12.83698 0.4421,13.07773 3.7158,13.44432 8.6198,0.96526 9.1617,1.37768 9.5903,7.29963 0.4058,5.60757 0.4688,5.67185 6.743,6.88389 3.4833,0.67291 6.3755,1.87291 6.4271,2.66667 0.052,0.79376 0.2016,30.48374 0.3333,65.97772 0.1535,41.35536 -0.2393,65.15618 -1.0937,66.26531 -0.7334,0.95193 -3.7334,1.91139 -6.6667,2.13214 l -5.3333,0.40136 -0.3815,12.19041 c -0.4428,14.15025 0,13.76113 -15.7886,13.79138 -6.1119,0.0117 -9.9185,-0.57658 -10.6667,-1.64846 z M 247.99999,371.99998 v -26.66667 h 27.33333 27.33333 v 26.66667 26.66666 h -27.33333 -27.33333 z m 805.33331,0 v -26.66667 h 27.3333 27.3333 v 26.66667 26.66666 h -27.3333 -27.3333 z"
         id="path6" />
      <path
         style="fill:#292727"
         d="m 507.99997,1067.3333 v -14 h -34 -34 v -13.3334 -13.3333 h -14 -13.99999 v -7.3333 -7.3334 h -6.66667 -6.66667 v -6.6666 -6.66669 h -14 -14 v -14 -14 H 357.33331 343.99998 V 957.33328 943.99994 H 330.71329 317.4266 l -0.37997,-13.66666 -0.37998,-13.66667 -7,-0.40301 -7,-0.40301 v -13.26366 -13.26365 h -6.66667 -6.66666 v -13.33333 -13.33333 h -20.66667 -20.66666 v -14 -14 h -6 -6 v -6.59699 -6.59699 l -7,-0.40301 -7,-0.40301 -0.40365,-6.26609 -0.40364,-6.2661 -6.92969,-0.40057 -6.92969,-0.40057 -0.42212,-62.66667 c -0.23217,-34.46666 -0.0198,-71.21666 0.47194,-81.66666 l 0.89407,-19 h 6.52806 6.52805 v -6.66666 -6.66667 h 7.33333 7.33334 v -6.66667 -6.66666 h 5.95335 5.95336 l 0.37997,-13.66667 0.37998,-13.66667 6.33333,-0.40638 6.33334,-0.40639 v -88.59361 -88.5936 h -6.66667 -6.66666 v -6.66667 -6.66667 h -6.66667 -6.66667 v -26.66666 -26.66667 h 6.66667 6.66667 v -14 -14 h 27.33333 27.33333 v 14 14 h 7.33333 7.33333 v 26.66667 26.66666 h -7.33333 -7.33333 v 6.66667 6.66667 h -7.33333 -7.33334 v 47.99999 48 h 7.33334 7.33333 v -14 -14 h 7.33333 7.33333 v -13.33333 -13.33333 h 6.66667 6.66667 v -6.66667 -6.66667 h 13.33333 13.33333 v -14 -13.99999 h 14 14 v -6.66667 -6.66667 h 6.66667 6.66666 v -6.66666 -6.66667 h 6.66667 6.66667 v -6.66667 -6.66666 h 6.66666 6.66667 v -6.66667 -6.66666 l 5.33333,-0.16667 c 2.93333,-0.0917 6.08333,-0.24167 7,-0.33333 1.01122,-0.10113 1.82649,-2.65738 2.07306,-6.5 l 0.40638,-6.33334 h 19.92695 19.92694 v -7.33333 -7.33333 h 20.66667 20.66666 v -13.33334 -13.33333 h 163.99999 163.99999 v 13.33333 13.33334 h 26.59699 26.59698 l 0.40302,7 0.40301,7 7.09621,0.40635 7.09622,0.40635 -0.3906,6.26031 -0.3906,6.26032 6.96105,0.40301 6.96105,0.40301 v 6.59699 6.59699 h 6.66667 6.66666 v 6.66666 6.66667 h 6.62075 6.62074 l 0.88436,6.66667 0.88437,6.66666 h 6.49489 6.49489 v 6.66667 6.66667 h 13.26366 13.26365 l 0.40301,7 0.40301,6.99999 6.00003,-0.0405 6,-0.0405 0.6666,6.70718 0.6667,6.70718 7,0.40301 7,0.40301 v 6.59699 6.59699 h 6.6667 6.6666 v 13.33333 13.33333 h 6.6667 6.6667 v 14 14 h 7.3333 7.3333 v -48 V 412 h -7.3333 -7.3333 v -6.66667 -6.66667 h -6.6667 -6.6667 V 372 345.33333 h 6.6667 6.6667 v -14 -14 h 27.3333 27.3333 v 14 14 h 6.6667 6.6667 V 372 398.66666 h -6.6667 -6.6667 V 405.33333 412 h -7.3333 -7.3333 v 88.66666 88.66666 h 14 14 v 14 14 h 6.6666 6.6667 v 6.66666 6.66667 h 7.3333 7.3334 v 6.66667 6.66666 h 6.6666 6.6667 v 82 81.99999 h -6.6184 -6.6184 l -0.3816,13 -0.3816,13 -7,0.40301 -7,0.40302 v 7.26365 7.26365 h -6.6667 -6.6666 v 6.66667 6.66667 h -19.9041 -19.904 l -0.8827,7.06459 c -0.4855,3.88552 -0.6786,9.73552 -0.4293,13 l 0.4534,5.9354 -6.3333,0.40639 -6.3334,0.40639 v 13.19374 13.19374 l -7.6381,0.39987 -7.6382,0.39987 -0.029,13.33333 -0.028,13.33334 -13,0.38161 -13,0.38162 v 13.28505 13.28505 h -14 -13.99999 v 14 14 h -13.26028 -13.26028 l -0.40639,6.33327 -0.40638,6.3334 -6.33334,0.4064 -6.33333,0.4063 v 7.2603 7.2603 h -14 -14 v 13.3333 13.3334 h -34 -33.99999 v 14 14 H 685.33329 507.99997 Z m 354.66665,-27.3334 0.66666,-12.6666 33.33333,-0.7254 c 18.33334,-0.399 33.45046,-0.849 33.59361,-1 0.14316,-0.1511 0.44316,-3.1246 0.66667,-6.608 l 0.40639,-6.3333 6.26314,-0.4035 6.26315,-0.4035 0.40352,-6.2632 0.40352,-6.26313 10,-0.33737 c 14.8307,-0.50035 15.99633,-0.93845 16.02042,-6.02136 0.0294,-6.21195 1.68252,-8.00018 8.19957,-8.8699 5.71897,-0.76322 5.78705,-0.83472 6.44667,-6.77136 l 0.66667,-6 6,-0.66667 6,-0.66667 0.66667,-12.66666 0.66666,-12.66667 11.98993,-0.38996 c 6.5945,-0.21448 12.5423,-0.94229 13.2174,-1.61737 0.6751,-0.67508 1.5796,-6.7996 2.01,-13.61004 l 0.7827,-12.38263 5.6604,-0.40969 c 5.9219,-0.42862 6.3344,-0.97046 7.2996,-9.59031 0.3235,-2.8883 1.1744,-3.42234 6.3733,-4 l 6,-0.66666 0.3683,-19.54636 0.3683,-19.54636 6.5337,-0.89861 6.5337,-0.89861 0.4438,-10.88836 c 0.6216,-15.24828 0.5789,-15.34887 -6.719,-15.82094 l -6.1955,-0.40076 -0.3411,-108.20713 -0.3412,-108.20714 6.6745,-0.91798 c 3.671,-0.50488 6.7375,-1.31167 6.8145,-1.79285 0.7536,-4.70922 0.8813,-21.38229 0.2698,-35.20822 l -0.752,-17 -4.8289,-0.0204 c -2.6559,-0.0112 -5.5617,-0.48599 -6.4573,-1.05502 -1.1295,-0.71769 -1.7422,-6.9397 -2,-20.31291 l -0.3716,-19.27832 -5.9644,-0.66667 c -5.7877,-0.64692 -5.9969,-0.83236 -7.0642,-6.26126 -1.0563,-5.37328 -1.3346,-5.62981 -7.0356,-6.48473 l -5.9358,-0.89012 v -11.73956 c 0,-15.28473 -0.3074,-15.95766 -7.2903,-15.95766 h -5.6716 l -0.8408,-7 c -0.4624,-3.85 -0.846,-9.81712 -0.8524,-13.26028 l -0.012,-6.26027 -6.3333,-0.40639 -6.33333,-0.40639 -0.66666,-6 -0.66667,-6 -6,-0.66667 c -5.98772,-0.6653 -6.00136,-0.67881 -6.66667,-6.60189 -0.66388,-5.91045 -0.69449,-5.94107 -7.33333,-7.33597 -6.63532,-1.39415 -6.66859,-1.42737 -7.07666,-7.06477 l -0.41,-5.66403 -10.25667,-0.0182 c -15.19979,-0.027 -16.04647,-0.42598 -16.52258,-7.78633 l -0.40075,-6.19546 -6,-0.66667 -6,-0.66666 -0.66667,-6 c -0.6665,-5.99852 -0.66808,-6.00011 -6.40596,-6.41355 -6.04215,-0.43537 -6.23174,-0.65097 -7.55057,-8.58645 l -0.83097,-5 h -11.97258 c -11.62494,0 -12.01034,-0.0993 -13.27292,-3.42013 -0.71518,-1.88108 -1.30033,-4.88108 -1.30033,-6.66667 0,-3.22211 -0.0997,-3.24653 -13.25487,-3.24653 h -13.25486 l -1.11381,5.66666 c -1.07949,5.49208 -1.28574,5.67922 -6.69412,6.07417 l -5.58031,0.40751 -0.38434,-12.39796 -0.38435,-12.39796 -6.93065,-1.10021 -6.93065,-1.1002 -0.40268,-6.24267 -0.40269,-6.24268 -146.66666,-0.36589 c -80.66666,-0.20124 -148.01666,-0.0398 -149.66666,0.35874 -2.84795,0.6879 -3,1.36226 -3,13.30547 v 12.58085 l 5,0.83097 c 7.94794,1.32089 8.33334,1.62162 8.33334,6.50266 0,5.19863 1.18706,6.30211 7.95471,7.39461 l 4.71195,0.76065 0.66667,11.58853 c 0.36667,6.37369 1.26667,12.17309 2,12.88757 0.73333,0.71448 3.40813,1.49183 5.94399,1.72744 4.25452,0.39531 4.72278,0.89185 6.06224,6.4284 1.35924,5.61831 1.8081,6.07566 7.05601,7.18944 4.60827,0.97803 5.60442,1.73282 5.60442,4.24653 0,1.6814 0.58515,4.59616 1.30034,6.47723 1.09854,2.88938 2.1331,3.42013 6.66666,3.42013 4.79694,0 5.36634,0.34447 5.36634,3.24653 0,1.7856 0.58515,4.7856 1.30033,6.66667 1.04415,2.74634 2.19405,3.42013 5.83674,3.42013 5.42988,0 7.16433,1.79068 7.75399,8.00536 l 0.44227,4.66131 88.30554,0.34284 88.30554,0.34284 0.69041,-3.0095 c 0.37973,-1.65523 0.84224,-7.50951 1.02779,-13.00951 l 0.33738,-10 10,-0.33738 c 16.82685,-0.56769 15.84481,0.31731 16.28521,-14.67595 l 0.38145,-12.98667 6,-0.66667 6,-0.66666 0.66667,-12.66667 0.66666,-12.66667 6.21319,-0.40148 6.21319,-0.40148 0.91681,9.78377 c 1.46996,15.68663 1.22102,16.28166 -7.00985,16.75554 l -7,0.40301 v 13.26365 13.26366 h -6.59699 -6.59699 l -0.40301,7 -0.40301,7 -6.33334,0.40639 -6.33333,0.40638 v 6.59361 6.59362 h -7.33333 -7.33333 v 6.66666 6.66667 h -88.66667 -88.66666 v -6.66667 -6.66666 H 602.66663 589.3333 v -6.59699 -6.59699 l -6.8905,-0.40301 -6.8905,-0.40301 -0.1095,-6.66667 -0.1095,-6.66667 -7,-0.40301 -7,-0.40301 V 411.9303 398.66664 h -6.66667 -6.66666 v -7.33333 -7.33333 h -6.59001 -6.59 l -0.40999,-5.66667 c -0.32788,-4.53169 -0.94411,-5.71943 -3.07667,-5.93009 -1.46666,-0.14489 -7.31666,-0.64608 -13,-1.11376 -9.43674,-0.77655 -10.33491,-1.10076 -10.35154,-3.73657 -0.0539,-8.55105 -0.58624,-8.88624 -14.1119,-8.88624 -13.68511,0 -13.07294,-0.40341 -14.16328,9.33333 l -0.37328,3.33333 -19.66666,0.36898 -19.66667,0.36898 -0.0204,4.29769 c -0.0295,6.20137 -1.68508,7.99027 -8.19958,8.85965 -5.71897,0.76322 -5.78704,0.83472 -6.44667,6.77137 l -0.66667,6 -6,0.66666 -6,0.66667 -0.66666,6 -0.66667,6 -13,1.1627 -13,1.1627 v 5.00737 c 0,6.04811 -1.70689,7.66674 -8.68357,8.23454 -5.23241,0.42585 -5.32696,0.52751 -5.9831,6.43269 -0.65612,5.90509 -0.75075,6.00684 -5.98269,6.43266 -6.20625,0.50511 -7.30253,1.78641 -7.33022,8.56734 -0.0196,4.79862 -0.20397,5 -4.57803,5 -8.55748,0 -8.77572,0.35171 -8.77572,14.14265 v 12.52401 l -5,0.0204 c -2.75,0.0112 -5.72577,0.48166 -6.61282,1.04541 -1.0264,0.65231 -1.7536,5.61052 -2,13.63643 l -0.38718,12.61144 -6.28669,1.14553 -6.28668,1.14554 -0.37998,12.86428 -0.37998,12.86428 -6.66667,0.66667 -6.66666,0.66666 v 26 26 l 6.66666,0.66667 6.66667,0.66666 0.66666,12.64855 0.66667,12.64854 5.0678,0.81925 c 6.4316,1.03973 7.32539,2.01411 7.8431,8.55033 0.41618,5.25441 0.51122,5.3432 6.42243,6 l 6,0.66667 v 94.66666 94.66666 l -6,0.66666 -6,0.66667 -0.66666,6 -0.66667,6 -6.33333,0.40639 -6.33334,0.40639 v 5.76368 c 0,6.81079 -1.54437,8.40982 -8.68357,8.99085 -5.19517,0.42282 -5.3256,0.55824 -5.71852,5.93755 -0.36242,4.9618 -0.0604,5.59062 3.06132,6.37413 1.90488,0.47809 4.02342,0.52316 4.70787,0.10014 0.68445,-0.42301 2.45686,-0.12026 3.93868,0.67279 2.51206,1.34441 2.69422,2.74101 2.69422,20.65527 v 19.21336 l 6.33334,0.40639 6.33333,0.40639 0.40639,6.33333 0.40639,6.33334 4.92694,0.0204 c 2.70982,0.0112 5.65272,0.48167 6.53977,1.04541 1.02658,0.65243 1.75355,5.61263 2,13.64625 l 0.38718,12.62126 12.66666,0.66666 12.66667,0.66667 0.66666,12.66667 0.66667,12.66666 5.33333,0.40136 c 6.23917,0.46952 8.66667,3.04272 8.66667,9.18681 0,4.10466 0.30717,4.41183 4.41183,4.41183 6.14409,0 8.71729,2.42751 9.18681,8.66667 l 0.40136,5.33333 11.26688,0.39157 c 6.19679,0.21536 12.04679,1.03883 13,1.82992 0.95322,0.7911 1.73312,3.7439 1.73312,6.5618 v 5.1235 l 13.66666,0.3799 13.66667,0.38 0.66667,6.6667 0.66666,6.6666 26.66667,0.6667 26.66666,0.6667 0.35816,11.3333 c 0.19698,6.2333 0.62899,12.0855 0.96003,13.0049 0.47916,1.3307 36.5642,1.6026 176.97517,1.3333 l 176.37329,-0.3382 z M 561.3333,957.33328 v -13.33334 h -26.66667 -26.66666 v -13.33333 -13.33333 l -17.66667,-0.0182 c -25.30905,-0.0261 -23.66666,0.99643 -23.66666,-14.73429 v -13.10814 l -7,-0.40301 -7,-0.40302 -0.0955,-6 -0.0955,-6 -6.23787,-0.40638 -6.23787,-0.40639 v -6.59361 -6.59361 h -7.33333 -7.33333 V 841.99995 821.33328 H 411.99998 398.66664 V 718.66662 615.99996 h 13.33334 13.33333 v -19.85185 c 0,-15.0256 0.40519,-19.8368 1.66666,-19.78995 0.91667,0.034 7.21667,-0.0326 14,-0.14815 l 12.33334,-0.21004 v -14 -14 h 13.28668 13.28669 l 0.37998,-13.66667 0.37998,-13.66666 10,-0.0104 c 5.5,-0.006 14.35,-0.15574 19.66666,-0.33333 l 9.66667,-0.3229 V 507.3333 494.66664 h 185.33332 185.33332 v 12.5 12.5 l 4.16667,0.83333 c 2.29167,0.45833 8.29167,0.83333 13.33333,0.83333 h 9.16667 v 6.66667 6.66666 h 6.66666 6.66667 v 6.66667 6.66667 h 6.66667 6.66666 v 6.66666 6.66667 h 7.33334 7.33333 v 7.28505 7.28505 l 13,0.38162 13,0.38161 0.36858,19.59821 0.36859,19.59821 6.60003,0.40179 6.60004,0.40179 0.36471,101.99999 0.36471,102 -7,0.40301 -7,0.40301 v 20.59699 20.59699 h -6.66666 -6.66667 v 6.66666 6.66667 h -6.66666 -6.66667 v 6.66666 6.66667 h -7.33333 -7.33334 v 13.74479 13.74479 l -17.66666,0.22458 c -9.71667,0.12352 -19.01667,0.23837 -20.66667,0.25521 -2.90907,0.0297 -3,0.43477 -3,13.36396 v 13.33333 h -26.66666 -26.66667 v 13.33334 13.33333 H 705.33329 561.3333 Z m 188.95318,-80.85772 c 2.90195,-0.72834 3.04681,-1.35785 3.04681,-13.24018 V 850.7599 l 13.66666,-0.37997 13.66667,-0.37998 0.37844,-14.33333 0.37844,-14.33334 h -14.71177 -14.71177 v 14 14 h -47.33334 -47.33333 v 13.11111 c 0,7.21111 0.3494,13.46051 0.77645,13.88756 1.01002,1.01002 88.18355,1.14584 92.17674,0.14361 z m -95.95319,-26.64933 c 2.86688,-0.76829 3,-1.41831 3,-14.64845 v -13.8445 h -14 -13.99999 v 13.77778 c 0,7.57778 0.4,14.17778 0.88888,14.66667 1.10466,1.10465 20.02805,1.14272 24.11111,0.0485 z m -91.66666,-89.82628 v -6.66666 h 6.66667 6.66667 v -6.66667 -6.66666 h 6.66666 6.66667 v -6.59362 -6.59361 l 6.33333,-0.40639 6.33333,-0.40638 0.36807,-20.33334 0.36806,-20.33333 h -6.63172 -6.63171 l -0.40302,-7 -0.40301,-7 -6.33333,-0.40638 -6.33333,-0.40639 v -6.59361 -6.59362 h -6.66667 -6.66667 v -6.66666 -6.66667 H 541.3333 519.99997 v 6.59361 6.59361 l -6.33333,0.40639 -6.33334,0.40639 -0.40352,6.26315 -0.40352,6.26314 -6.26314,0.40352 -6.26315,0.40352 -0.40301,7 -0.40301,7 h -6.59699 -6.59699 v 20.66667 20.66666 h 6.66667 6.66666 v 6.66667 6.66667 h 6.66667 6.66667 v 6.66666 6.66667 h 6.66666 6.66667 v 6.66666 6.66667 h 21.33333 21.33333 z m 313.33332,0 v -6.66666 h 6.66666 6.66667 v -6.66667 -6.66666 h 6.66667 6.66666 v -6.59699 -6.59699 l 7,-0.40301 7,-0.40301 0.36768,-20.26246 0.36768,-20.26247 -7.03434,-0.4042 -7.03435,-0.4042 -0.40301,-7 -0.40302,-7 h -6.59698 -6.59699 v -6.66667 -6.66667 h -6.66667 -6.66666 v -6.66666 -6.66667 h -20.66667 -20.66666 v 6.59699 6.59699 l -6.96105,0.40301 -6.96105,0.40301 0.39035,6.25636 0.39036,6.25636 -6.42931,0.41031 -6.4293,0.4103 -0.40301,7 -0.40302,7 h -7.29838 -7.29838 l 0.36806,20.33333 0.36806,20.33334 7,0.40301 7,0.40301 v 6.59699 6.59699 h 6.55059 6.55059 l -0.21726,6.33333 -0.21725,6.33333 7,0.40301 7,0.40302 v 6.59698 6.59699 h 20.66666 20.66667 z m -630.10901,60.52402 c 1.20309,-0.46167 2.10905,-2.3568 2.10905,-4.41183 0,-8.04744 0.90681,-8.30264 29.04755,-8.17483 l 25.61911,0.11635 v -6.69352 -6.69352 h 7.33333 7.33333 v -75.33333 -75.33333 h -7.33333 -7.33333 V 630.66663 617.3333 h -27.33333 -27.33333 l 0.002,7 0.002,7 h -5.66839 -5.66839 l -0.38909,11.93056 c -0.214,6.56182 -1.01073,12.6796 -1.77051,13.59508 -0.75978,0.91548 -3.88469,1.84672 -6.94424,2.06943 l -5.56282,0.40492 v 67.33333 67.33333 l 5.97809,0.42522 c 3.28796,0.23386 6.42877,1.13386 6.97959,2 0.55081,0.86613 1.01067,6.48079 1.0219,12.47702 0.0173,9.25153 0.3737,10.99455 2.35375,11.51199 3.6622,0.95704 5.28816,0.98066 7.55762,0.10979 z m 885.72756,-0.0185 c 2.736,-0.73353 2.9797,-1.68242 3.3333,-12.98179 l 0.3815,-12.19041 5.3333,-0.40136 c 2.9333,-0.22075 5.9333,-1.18021 6.6667,-2.13214 0.8544,-1.10913 1.2472,-24.90995 1.0937,-66.26531 -0.1317,-35.49398 -0.2817,-65.18396 -0.3333,-65.97772 -0.052,-0.79376 -2.9438,-1.99376 -6.4271,-2.66667 -6.2742,-1.21204 -6.3372,-1.27632 -6.743,-6.88389 -0.4286,-5.92195 -0.9705,-6.33437 -9.5903,-7.29963 -3.2705,-0.36624 -3.3405,-0.61688 -3.714,-13.29344 l -0.3807,-12.92016 -20.6193,-0.0833 -20.6194,-0.0833 v 6.67016 6.67017 h -6 -6 v 81.99999 82 h 6.7767 6.7767 L 1081.11,801 l -0.4434,6.33334 13,0.38161 13,0.38162 v 5.01838 c 0,2.76011 0.72,5.73838 1.6,6.61838 1.6663,1.66629 18.002,2.20649 23.3519,0.77221 z M 302.66665,371.99998 v -26.66667 h -27.33333 -27.33333 v 26.66667 26.66666 h 27.33333 27.33333 z m 805.33325,0 v -26.66667 h -27.3333 -27.3333 v 26.66667 26.66666 h 27.3333 27.3333 z"
         id="path5" />
    </g>
    <g
       id="g2"
       style="display:none">
      <path
         style="fill:#b8b8b8"
         d="m 507.15992,1066.6666 c 0,-7.7 0.22037,-10.85 0.48971,-7 0.26933,3.85 0.26933,10.15 0,14 -0.26934,3.85 -0.48971,0.7 -0.48971,-7 z m -67.99999,-26.6667 c 0,-7.7 0.22036,-10.85 0.4897,-7 0.26934,3.85 0.26934,10.15 0,14 -0.26934,3.85 -0.4897,0.7 -0.4897,-7 z m 491.61194,-11.4444 c 0.064,-1.5533 0.37992,-1.8692 0.80556,-0.8056 0.38516,0.9625 0.33779,2.1125 -0.10526,2.5556 -0.44306,0.443 -0.75819,-0.3445 -0.7003,-1.75 z m -519.69207,-9.2222 c 0.007,-4.4 0.2564,-6.0393 0.55315,-3.6428 0.29675,2.3965 0.29063,5.9965 -0.0136,8 -0.30423,2.0035 -0.54702,0.043 -0.53954,-4.3572 z m 136.90549,-1.6667 c -0.008,-4.95 -0.38657,-11.25 -0.84112,-14 l -0.82645,-4.99999 H 519.82551 493.3333 v -6.59361 -6.59362 l -6.33333,-0.40638 -6.33333,-0.40639 -0.40301,-7 -0.40302,-7 h -13.26365 -13.26365 v -13.33333 -13.33334 h -14 -14 v -13.19068 c 0,-14.51494 -0.17351,-14.80931 -8.72907,-14.80931 h -4.51098 l -0.37997,-13.66667 -0.37998,-13.66667 -10.66667,-0.10843 c -5.86666,-0.0596 -11.71666,-0.20964 -13,-0.33334 -2.0902,-0.20146 -2.33333,-2.01966 -2.33333,-17.44918 0,-9.47335 -0.36419,-18.17335 -0.80932,-19.33333 -0.58541,-1.52555 -2.61427,-2.10905 -7.33333,-2.10905 h -6.52402 V 699.40297 549.47266 l 7,-0.40301 7,-0.40302 0.36807,-20.33333 0.36806,-20.33333 h 6.58529 6.58529 l 0.37998,-13.66667 0.37998,-13.66666 6.33333,-0.40639 6.33334,-0.40639 v -5.92694 c 0,-4.9825 0.42492,-5.95351 2.66666,-6.09361 1.46667,-0.0917 3.26667,-0.31667 4,-0.5 0.73334,-0.18334 2.53333,-0.40834 4,-0.5 2.28889,-0.14306 2.66667,-1.11112 2.66667,-6.83334 v -6.66666 h 6.51116 c 7.01619,0 8.09514,-1.27205 8.1373,-9.59361 0.0169,-3.33817 0.4684,-3.6225 6.35154,-4 l 6.33333,-0.40639 0.40639,-6.33334 0.40639,-6.33333 6.26027,-0.0116 c 3.44316,-0.006 9.38068,-0.38644 13.19449,-0.84459 l 6.93422,-0.83301 0.39912,-6.1554 0.39912,-6.15541 13.66666,-0.37998 13.66667,-0.37997 v -6.62002 -6.62003 h 13.26365 13.26366 l 0.40301,-7 0.40301,-7 6.33333,-0.40638 6.33334,-0.40639 v 7.40639 7.40638 h 6.66666 6.66667 v 13.26366 13.26365 l 7,0.40301 7,0.40301 0.1095,6.66667 0.1095,6.66667 6.8905,0.40301 6.8905,0.40301 v 6.59699 6.59699 h 13.33333 13.33333 v 6.66666 6.66667 h 88.66666 88.66667 v -6.66667 -6.66666 h 7.33333 7.33333 v -6.59362 -6.59361 l 6.33333,-0.40638 6.33334,-0.40639 0.40301,-7 0.40301,-7 h 6.59699 6.59699 V 412.06965 398.806 l 7,-0.40301 7,-0.40301 0.39257,-6.66667 0.39258,-6.66667 15.60742,0.18471 c 26.86192,0.31791 24.06765,-0.4583 24.53437,6.81529 l 0.40639,6.33334 6.33333,0.40638 6.33333,0.40639 0.0204,4.92695 c 0.0112,2.70982 0.48166,5.65271 1.04541,6.53976 0.65243,1.02659 5.61263,1.75356 13.64625,2 l 12.62125,0.38718 0.66667,6.66667 0.66667,6.66666 6.26314,0.40353 6.26315,0.40352 0.40352,6.26314 0.40352,6.26315 7,0.40301 7,0.40301 v 6.59699 6.59699 h 6 6 v 5.13774 c 0,2.82576 0.38547,8.82576 0.85661,13.33333 l 0.85661,8.19559 h 13.10866 13.10866 l 0.36806,20.33333 0.36806,20.33334 6.14325,0.39862 6.1432,0.39862 0.8568,10.13588 c 0.4712,5.57474 0.8568,14.51248 0.8568,19.86166 v 9.72577 l 6.3333,0.40639 6.3333,0.40639 v 143.33332 143.33333 l -6.3333,0.40638 -6.3333,0.40639 -0.01,10.26028 c -0.01,5.64315 -0.392,14.31028 -0.8595,19.26028 l -0.85,9 h -13.14052 -13.14053 v 14 14 h -5.73333 c -3.15333,0 -6.45333,0.72 -7.33333,1.6 -1.01505,1.01505 -1.6,6.13333 -1.6,13.99999 v 12.4 h -13.33333 -13.33334 v 13.33334 13.33333 h -13.33333 -13.33333 l -0.0182,4.33333 c -0.0383,9.11482 -0.99785,10.33333 -8.1373,10.33333 h -6.51116 v 6.66667 6.66667 h -26.66666 -26.66667 v 13.99999 14 H 698.66663 547.99997 Z m 301.34799,-60.33332 v -13.33334 h 26.66667 26.66666 v -13.33333 c 0,-12.92919 0.0909,-13.33426 3,-13.36396 1.65,-0.0168 10.95,-0.13169 20.66667,-0.25521 l 17.66666,-0.22458 v -13.74479 -13.74479 h 7.33334 7.33333 v -6.66667 -6.66666 h 6.66667 6.66666 v -6.66667 -6.66666 h 6.66667 6.66666 v -20.59699 -20.59699 l 7,-0.40301 7,-0.40301 -0.36471,-102 -0.36471,-101.99999 -6.60004,-0.40179 -6.60003,-0.40179 -0.36859,-19.59821 -0.36858,-19.59821 -13,-0.38161 -13,-0.38162 v -7.28505 -7.28505 h -7.33333 -7.33334 v -6.66667 -6.66666 h -6.66666 -6.66667 v -6.66667 -6.66667 h -6.66667 -6.66666 v -6.66666 -6.66667 h -9.16667 c -5.04166,0 -11.04166,-0.375 -13.33333,-0.83333 l -4.16667,-0.83333 v -12.5 -12.5 H 705.33329 519.99997 v 12.66666 12.66667 l -9.66667,0.3229 c -5.31666,0.17759 -14.16666,0.32759 -19.66666,0.33333 l -10,0.0104 -0.37998,13.66666 -0.37998,13.66667 h -13.28669 -13.28668 v 14 14 l -12.33334,0.21004 c -6.78333,0.11553 -13.08333,0.18219 -14,0.14815 -1.26147,-0.0468 -1.66666,4.76435 -1.66666,19.78995 v 19.85185 h -13.33333 -13.33334 v 102.66666 102.66666 h 13.33334 13.33333 v 20.66667 20.66667 h 7.33333 7.33333 v 6.59361 6.59361 l 6.23787,0.40639 6.23787,0.40638 0.0955,6 0.0955,6 7,0.40302 7,0.40301 v 13.10814 c 0,15.73072 -1.64239,14.70821 23.66666,14.73429 l 17.66667,0.0182 v 13.33333 13.33333 h 26.66666 26.66667 v 13.33334 13.33333 h 143.99999 143.99999 z m -191.1111,-80.88889 c -0.48889,-0.48889 -0.88889,-6.78889 -0.88889,-14 v -13.11111 h 47.28823 47.28822 l 0.4286,-14.33333 0.4286,-14.33333 0.28317,14.33333 0.28318,14.33333 h 13.33333 13.33333 v -13.28505 -13.28505 l -13,-0.43589 -12.99999,-0.4359 13.71177,-0.27905 13.71177,-0.27906 -0.37844,14.33334 -0.37844,14.33333 -13.61894,0.37945 -13.61894,0.37945 -0.43534,12.95388 -0.43534,12.95388 -0.27905,-12.99999 -0.27905,-13 h -46.75522 -46.75522 l 0.42189,13.33623 c 0.23204,7.33493 0.37188,13.33493 0.31077,13.33334 -0.0611,-0.002 -0.51111,-0.40291 -1,-0.8918 z m 5.52778,-0.0219 c 0.9625,-0.38516 2.1125,-0.33779 2.55556,0.10527 0.44305,0.44305 -0.34445,0.75818 -1.75,0.70029 -1.55326,-0.064 -1.8692,-0.37992 -0.80556,-0.80556 z m 19.91667,-0.0852 c 8.98333,-0.23067 23.68333,-0.23067 32.66666,0 8.98333,0.23068 1.63333,0.41941 -16.33333,0.41941 -17.96667,0 -25.31667,-0.18873 -16.33333,-0.41941 z m 50.74999,0.0852 c 0.9625,-0.38516 2.1125,-0.33779 2.55556,0.10527 0.44305,0.44305 -0.34445,0.75818 -1.75,0.70029 -1.55326,-0.064 -1.8692,-0.37992 -0.80556,-0.80556 z m 6.58334,-0.0302 c 1.65,-0.3178 4.35,-0.3178 6,0 1.65,0.31781 0.3,0.57783 -3,0.57783 -3.3,0 -4.65,-0.26002 -3,-0.57783 z M 630.22218,849.77773 c -0.48888,-0.48889 -0.88888,-7.08889 -0.88888,-14.66667 v -13.77778 l 14.33333,0.2812 14.33333,0.2812 -13.66667,0.43211 -13.66666,0.43212 v 13.23477 13.23478 l 11.66667,0.4444 11.66666,0.4444 -11.44444,0.27418 c -6.29445,0.15079 -11.84445,-0.12582 -12.33334,-0.61471 z m -109.98188,-90.11111 0.24033,-7 0.49939,6.33333 0.49939,6.33334 h 19.85389 19.85389 l 0.49939,-6.33334 0.49939,-6.33333 0.24033,7 0.24033,7 H 541.3333 519.99997 Z m 324.82296,6.00699 c 6.08482,-0.24762 15.68482,-0.24624 21.33333,0.003 5.64851,0.24931 0.67002,0.45191 -11.06331,0.45022 -11.73333,-0.002 -16.35484,-0.20567 -10.27002,-0.45329 z M 506.66664,746.66662 v -6.66666 h -6.66667 -6.66667 v -6.66667 -6.66667 h -6.66666 -6.66667 l 0.29592,-21 0.29592,-20.99999 0.40509,20.26168 0.40509,20.26168 6.29899,0.40498 6.29899,0.40499 0.40639,6.33333 0.40639,6.33333 h 6.59361 6.59361 v 7.33334 c 0,4.03333 -0.3,7.33333 -0.66667,7.33333 -0.36666,0 -0.66666,-3 -0.66666,-6.66667 z m 68.24664,-0.33333 -0.24665,-7.66667 h 6.59361 6.59362 l 0.40638,-6.33333 0.40639,-6.33333 6.29899,-0.40499 6.29899,-0.40498 0.42156,-19.92986 0.42157,-19.92985 -0.0539,20.33484 -0.0539,20.33484 -6.33333,0.40638 -6.33333,0.40639 v 6.59361 6.59362 h -6.59699 -6.59699 l -0.4897,7 -0.4897,7 z m 236.08667,-7.28834 c 2.01667,-0.3055 5.31667,-0.3055 7.33333,0 2.01667,0.3055 0.36667,0.55545 -3.66666,0.55545 -4.03333,0 -5.68333,-0.24995 -3.66667,-0.55545 z m 81.33333,0 c 2.01667,-0.3055 5.31667,-0.3055 7.33333,0 2.01667,0.3055 0.36667,0.55545 -3.66666,0.55545 -4.03334,0 -5.68334,-0.24995 -3.66667,-0.55545 z m -98.41344,-14.10631 c -0.3647,-0.95039 -0.47803,-10.40039 -0.25184,-21 l 0.41125,-19.27201 0.29369,20.26365 0.29368,20.26365 7,0.4897 7,0.48971 -7.04185,0.24664 c -4.72629,0.16554 -7.25988,-0.32156 -7.70493,-1.48134 z m 115.04575,0.78666 6.96564,-0.52899 0.42158,-19.93301 0.42157,-19.93302 -0.0539,20.33484 -0.0539,20.33484 -7.33333,0.12716 -7.33333,0.12716 z m -415.06966,-47.72534 0.10404,-6.66667 6.26315,-0.40352 6.26314,-0.40352 0.40352,-6.26314 0.40352,-6.26315 6.33334,-0.40639 6.33333,-0.40639 v -6.59361 -6.59361 h 21.33333 21.33333 v 6.66667 6.66666 h 6.66667 6.66667 v 6.59362 6.59361 l 6.33333,0.40639 6.33333,0.40638 0.10404,6.66667 0.10404,6.66667 -0.50705,-6.33334 -0.50705,-6.33333 h -6.59699 -6.59699 v -6.59361 -6.59361 l -6.33333,-0.40639 -6.33333,-0.40639 -0.40639,-6.33333 -0.40639,-6.33334 H 541.26025 521.3333 v 6.66667 6.66667 h -6.66666 -6.66667 v 6.66666 6.66667 h -6.59699 -6.59698 l -0.50706,6.33333 -0.50705,6.33334 z m 314.63964,-4 c 0.11176,-2.2742 1.11221,-2.6867 6.79771,-2.8028 l 6.66667,-0.13614 -6.24972,0.53911 c -4.48272,0.38669 -6.40466,1.17913 -6.79771,2.8028 -0.38773,1.60169 -0.50967,1.48384 -0.41695,-0.40297 z m 83.79771,-2.95501 c 2.01667,-0.3055 5.31667,-0.3055 7.33333,0 2.01667,0.3055 0.36667,0.55546 -3.66666,0.55546 -4.03334,0 -5.68334,-0.24996 -3.66667,-0.55546 z m -71.12341,-12.79231 c 0.59659,-0.59436 4.01842,-0.88477 7.60407,-0.64537 l 6.51934,0.43528 -7.60406,0.64537 c -4.18224,0.35496 -7.11595,0.15908 -6.51935,-0.43528 z m 57.79008,-0.54102 c 2.01666,-0.3055 5.31666,-0.3055 7.33333,0 2.01667,0.3055 0.36667,0.55546 -3.66667,0.55546 -4.03333,0 -5.68333,-0.24996 -3.66666,-0.55546 z m -33.93669,-13.37133 c 6.08482,-0.24762 15.68482,-0.24624 21.33333,0.003 5.64851,0.2493 0.67002,0.4519 -11.06331,0.45022 -11.73333,-0.002 -16.35484,-0.20567 -10.27002,-0.45329 z M 397.33331,1006.05 v -5.95 l -12.33333,-0.43997 -12.33334,-0.43998 13,-0.27672 13,-0.27672 v 6.66669 c 0,3.6666 -0.3,6.6666 -0.66666,6.6666 -0.36667,0 -0.66667,-2.6774 -0.66667,-5.9499 z m 579.69051,-7.01637 c 2.39647,-0.29675 5.99647,-0.29062 8,0.0136 2.00353,0.30423 0.0428,0.54703 -4.35721,0.53954 -4.4,-0.007 -6.03926,-0.2564 -3.64279,-0.55315 z m 21.39263,-13.82386 0.41651,-14.54316 14.25014,0.2812 14.2502,0.28119 -13.6667,0.43212 -13.66666,0.43211 v 13.208 c 0,7.2644 -0.45,13.48783 -1,13.82985 -0.55,0.34201 -0.81257,-5.92258 -0.58349,-13.92131 z m -629.08314,-8.48224 v -4.60575 l -9,-0.46644 -9,-0.46644 9.66667,-0.26114 9.66666,-0.26115 v 5.33333 c 0,2.93333 -0.3,5.33333 -0.66666,5.33333 -0.36667,0 -0.66667,-2.07258 -0.66667,-4.60574 z m -26.09497,-6.49428 c -0.37286,-0.97168 -0.49936,-7.42167 -0.28111,-14.33333 l 0.39683,-12.56664 0.6563,14.33614 c 0.36096,7.88488 0.48746,14.33488 0.28111,14.33334 -0.20635,-0.002 -0.68026,-0.79783 -1.05313,-1.76951 z m -26.96164,-39.16363 -0.27672,-13.59698 -7,-0.48971 -7,-0.4897 7.04185,-0.24664 c 4.80187,-0.16819 7.25749,0.31533 7.71979,1.52004 0.37286,0.97168 0.47856,7.42168 0.23487,14.33334 l -0.44306,12.56664 z m 736.2745,-12.40301 c 0.1077,-1.52497 2.0383,-2.02835 8.1284,-2.11935 l 7.987,-0.11935 -7.5812,0.51667 c -4.2892,0.29232 -7.8188,1.21261 -8.1284,2.11935 -0.3009,0.88148 -0.4836,0.70268 -0.4058,-0.39732 z M 288.49327,875.99995 c 0,-7.7 0.22037,-10.85 0.4897,-7 0.26934,3.85 0.26934,10.15 0,14 -0.26933,3.85 -0.4897,0.7 -0.4897,-7 z m 791.91983,0.66666 c 0.01,-4.4 0.2564,-6.03925 0.5531,-3.64278 0.2968,2.39646 0.2907,5.99646 -0.014,8 -0.3042,2.00353 -0.547,0.0428 -0.5395,-4.35722 z m 41.3015,-21.33333 c 0.01,-3.66666 0.269,-5.00841 0.5754,-2.98166 0.3065,2.02675 0.2983,5.02675 -0.018,6.66666 -0.3164,1.63992 -0.5672,-0.0183 -0.5572,-3.685 z m 13.2882,-16 c 0.015,-2.93333 0.2879,-3.97633 0.6068,-2.31778 0.3189,1.65855 0.3068,4.05855 -0.027,5.33333 -0.3337,1.27478 -0.5947,-0.0822 -0.5799,-3.01555 z M 235.0662,827.99995 c 0,-4.03333 0.24996,-5.68333 0.55546,-3.66667 0.3055,2.01667 0.3055,5.31667 0,7.33334 -0.3055,2.01666 -0.55546,0.36666 -0.55546,-3.66667 z m 27.35731,-86.94494 c 0.29045,-36.81972 0.10479,-73.71972 -0.41258,-82 l -0.94068,-15.05505 h -6.53513 -6.53513 V 630.66663 617.3333 h -5.93032 -5.93033 l -0.4897,7 -0.4897,7 -0.24664,-7.86232 -0.24665,-7.86231 10.20117,0.86231 c 5.61065,0.47427 20.91064,0.86232 34,0.86232 h 23.79883 v 13.33333 13.33333 h 7.33333 7.33333 v 75.33333 75.33333 h -7.33333 -7.33333 v 6.66667 6.66666 h -20.38561 -20.38562 z m 818.55959,66.15033 c -0.4866,-0.4866 -0.5253,-3.50688 -0.086,-6.71172 l 0.7986,-5.827 h -6.8479 -6.8479 v -82 -81.99999 h 6 6 v -6.66667 -6.66666 h 14.0089 14.0089 l -0.3422,94.99999 -0.3422,95 -12.7328,0.37839 c -7.0029,0.20811 -13.1308,-0.0197 -13.6174,-0.50634 z m 82.3105,-81.20538 c -2e-4,-45.46667 0.1673,-64.25993 0.3721,-41.76281 0.2049,22.49712 0.205,59.69712 3e-4,82.66666 -0.2047,22.96955 -0.3723,4.56281 -0.3724,-40.90385 z M 207.11493,653.33329 c 0,-5.5 0.23536,-7.75 0.52302,-5 0.28765,2.75 0.28765,7.25 0,10 -0.28766,2.75 -0.52302,0.5 -0.52302,-5 z m 927.78457,-28.99999 -0.2329,-7 h -6.6667 -6.6666 l 0.279,-13.66667 0.2791,-13.66667 0.4359,13 0.4359,13 h 5.9935 c 6.886,0 7.6468,1.05002 6.8936,9.51413 -0.5119,5.75282 -0.5205,5.73935 -0.7508,-1.18079 z m 4.7671,5.39235 c 1.65,-0.3178 4.35,-0.3178 6,0 1.65,0.31781 0.3,0.57783 -3,0.57783 -3.3,0 -4.65,-0.26002 -3,-0.57783 z m -851.35067,-169.39234 -0.31595,-48.33333 7.66667,0.24664 7.66667,0.24664 -6.98324,0.48912 -6.98323,0.48912 -0.36748,47.59757 -0.36749,47.59757 z m 778.35067,0.40301 v -47.26365 l -7,-0.48971 -7,-0.4897 7.6667,-0.24664 7.6666,-0.24664 v 47.99999 c 0,26.4 -0.3,48 -0.6666,48 -0.3667,0 -0.6667,-21.26864 -0.6667,-47.26365 z m -750.17333,5.93032 c 0,-7.7 0.22036,-10.85 0.4897,-7 0.26934,3.85 0.26934,10.15 0,14 -0.26934,3.85 -0.4897,0.7 -0.4897,-7 z m 13.40267,-20.66667 0.10404,-6.66666 13.66953,-0.0736 13.66954,-0.0736 -13.26812,0.45286 -13.26811,0.45286 -0.50546,6.28744 -0.50546,6.28744 z m 687.78896,-6.95677 c 2.0268,-0.30647 5.0268,-0.29828 6.6667,0.0182 1.6399,0.31648 -0.018,0.56723 -3.685,0.55722 -3.6667,-0.01 -5.0084,-0.26895 -2.9817,-0.57542 z m -5.2854,-7.04323 c 0,-4.03333 0.2499,-5.68333 0.5554,-3.66666 0.3055,2.01666 0.3055,5.31666 0,7.33333 -0.3055,2.01667 -0.5554,0.36667 -0.5554,-3.66667 z m -13.19219,-7.18079 c -0.38992,-1.0161 -0.47591,-4.4661 -0.1911,-7.66667 l 0.51784,-5.8192 0.23295,6.90726 c 0.20279,6.01321 0.6213,6.98206 3.2329,7.48509 l 3,0.57783 -3.0418,0.18158 c -1.673,0.0999 -3.36087,-0.64979 -3.75079,-1.66589 z M 252.35165,412.37653 c 2.02675,-0.30647 5.02675,-0.29828 6.66667,0.0182 1.63991,0.31649 -0.0183,0.56724 -3.685,0.55723 -3.66667,-0.01 -5.00842,-0.26895 -2.98167,-0.57543 z m 843.98165,0.002 c 2.0166,-0.3055 5.3166,-0.3055 7.3333,0 2.0167,0.3055 0.3667,0.55546 -3.6667,0.55546 -4.0333,0 -5.6833,-0.24996 -3.6666,-0.55546 z m -711.7707,-7.71166 0.10404,-6.66666 5.33334,-0.11402 5.33333,-0.11401 -4.93287,0.52073 c -4.82735,0.50959 -4.94365,0.65463 -5.43737,6.78068 l -0.50451,6.25995 z m 13.33333,-13.33333 0.10405,-6.66667 6.26314,-0.40352 6.26315,-0.40352 0.40352,-6.26314 0.40352,-6.26315 6.66667,-0.10404 6.66666,-0.10404 -6.33333,0.50705 -6.33333,0.50706 v 6.59698 6.59699 h -6.59699 -6.59699 l -0.50705,6.33333 -0.50706,6.33334 z m 563.11956,6.39032 c 1.65855,-0.31893 4.05855,-0.30682 5.33333,0.0269 1.27478,0.33372 -0.0822,0.59466 -3.01554,0.57986 -2.93334,-0.0148 -3.97634,-0.28785 -2.31779,-0.60677 z m 78.27531,-26.05606 0.043,-27.00092 6.2874,-0.40452 6.2875,-0.40451 0.4313,-13.59549 0.4314,-13.59548 0.2812,14.33333 0.2812,14.33333 h -6.6391 -6.639 l -0.4035,26.66759 -0.4034,26.6676 z m 82.3445,0.0687 -0.302,-26.26365 -7,-0.4897 -7,-0.4897 7.0418,-0.24665 c 4.6854,-0.1641 7.2612,0.32483 7.6972,1.46108 0.3604,0.93925 0.4775,13.08925 0.2602,27 l -0.3951,25.29228 z m -164.30202,16.26366 c 0,-2.31111 -0.88889,-2.66667 -6.66667,-2.66667 h -6.66667 v -6.59699 -6.59698 l -6.33333,-0.50706 -6.33333,-0.50705 6.66666,0.10404 6.66667,0.10404 0.40639,6.33333 0.40639,6.33334 h 6.59361 c 6.14429,0 6.59361,0.22714 6.59361,3.33333 0,1.83333 -0.3,3.33333 -0.66667,3.33333 -0.36666,0 -0.66666,-1.2 -0.66666,-2.66666 z M 427.66664,357.72567 c 1.65,-0.31781 4.35,-0.31781 6,0 1.65,0.3178 0.3,0.57782 -3,0.57782 -3.3,0 -4.65,-0.26002 -3,-0.57782 z m 10.79007,-6.51658 0.45673,-7.20911 20.8766,0.29592 20.8766,0.29591 -20.33333,0.40548 -20.33334,0.40548 v 5.88658 c 0,3.23762 -0.45,6.16609 -1,6.50771 -0.55,0.34162 -0.79447,-2.62297 -0.54326,-6.58797 z m 478.40075,6.43302 c -0.34826,-0.5635 1.86633,-0.83176 4.92131,-0.59613 8.97249,0.69203 10.0644,1.29993 2.6332,1.466 -3.80672,0.0851 -7.20625,-0.30638 -7.55451,-0.86987 z m -679.19081,-13.2638 c 2.01667,-0.3055 5.31667,-0.3055 7.33334,0 2.01666,0.3055 0.36666,0.55545 -3.66667,0.55545 -4.03333,0 -5.68333,-0.24995 -3.66667,-0.55545 z m 68.69054,-0.0113 c 2.39647,-0.29674 5.99647,-0.29062 8,0.0136 2.00354,0.30423 0.0428,0.54703 -4.35721,0.53954 -4.4,-0.007 -6.03925,-0.2564 -3.64279,-0.55315 z m 596.85013,-0.88115 c -0.38992,-1.0161 -0.47591,-4.4661 -0.1911,-7.66666 0.51712,-5.81108 0.51817,-5.80953 0.75078,1.11111 l 0.23295,6.93032 7,0.4897 7,0.48971 -7.04185,0.24664 c -4.94937,0.17335 -7.25251,-0.30233 -7.75078,-1.60082 z m -382.92615,-26.48587 -0.2812,-14.33333 164.99999,0.32804 164.99999,0.32803 -164.28674,0.34388 -164.28674,0.34387 -0.43205,13.66142 -0.43206,13.66142 z"
         id="path4" />
      <path
         style="fill:#f20605"
         d="m 508.65149,1051.6715 c -0.33104,-0.9194 -0.76305,-6.7716 -0.96003,-13.0049 l -0.35816,-11.3333 -26.66666,-0.6667 -26.66667,-0.6667 -0.66666,-6.6666 -0.66667,-6.6667 -13.66667,-0.38 -13.66666,-0.3799 v -5.1235 c 0,-2.8179 -0.7799,-5.7707 -1.73312,-6.5618 -0.95321,-0.79106 -6.80321,-1.61453 -13,-1.82989 l -11.26688,-0.39157 -0.40136,-5.33333 c -0.46952,-6.23916 -3.04272,-8.66667 -9.18681,-8.66667 -4.10466,0 -4.41183,-0.30717 -4.41183,-4.41183 0,-6.14409 -2.4275,-8.71729 -8.66667,-9.18681 l -5.33333,-0.40136 -0.66667,-12.66666 -0.66666,-12.66667 -12.66667,-0.66667 -12.66666,-0.66666 -0.38718,-12.62126 c -0.24645,-8.03362 -0.97342,-12.99382 -2,-13.64625 -0.88705,-0.56374 -3.82995,-1.03418 -6.53977,-1.04541 l -4.92694,-0.0204 -0.40639,-6.33334 -0.40639,-6.33333 -6.33333,-0.40639 -6.33334,-0.40639 v -19.21336 c 0,-17.91426 -0.18216,-19.31086 -2.69422,-20.65527 -1.48182,-0.79305 -3.25423,-1.0958 -3.93868,-0.67279 -0.68445,0.42302 -2.80299,0.37795 -4.70787,-0.10014 -3.12173,-0.78351 -3.42374,-1.41233 -3.06132,-6.37413 0.39292,-5.37931 0.52335,-5.51473 5.71852,-5.93755 7.1392,-0.58103 8.68357,-2.18006 8.68357,-8.99085 v -5.76368 l 6.33334,-0.40639 6.33333,-0.40639 0.66667,-6 0.66666,-6 6,-0.66667 6,-0.66666 V 725.99996 631.3333 l -6,-0.66667 c -5.91121,-0.6568 -6.00625,-0.74559 -6.42243,-6 -0.51771,-6.53622 -1.4115,-7.5106 -7.8431,-8.55033 l -5.0678,-0.81925 -0.66667,-12.64854 -0.66666,-12.64855 -6.66667,-0.66666 -6.66666,-0.66667 v -26 -26 l 6.66666,-0.66666 6.66667,-0.66667 0.37998,-12.86428 0.37998,-12.86428 6.28668,-1.14554 6.28669,-1.14553 0.38718,-12.61144 c 0.2464,-8.02591 0.9736,-12.98412 2,-13.63643 0.88705,-0.56375 3.86282,-1.03418 6.61282,-1.04541 l 5,-0.0204 v -12.52401 c 0,-13.79094 0.21824,-14.14265 8.77572,-14.14265 4.37406,0 4.55843,-0.20138 4.57803,-5 0.0277,-6.78093 1.12397,-8.06223 7.33022,-8.56734 5.23194,-0.42582 5.32657,-0.52757 5.98269,-6.43266 0.65614,-5.90518 0.75069,-6.00684 5.9831,-6.43269 6.97668,-0.5678 8.68357,-2.18643 8.68357,-8.23454 v -5.00737 l 13,-1.1627 13,-1.1627 0.66667,-6 0.66666,-6 6,-0.66667 6,-0.66666 0.66667,-6 c 0.65963,-5.93665 0.7277,-6.00815 6.44667,-6.77137 6.5145,-0.86938 8.17012,-2.65828 8.19958,-8.85965 l 0.0204,-4.29769 19.66667,-0.36898 19.66666,-0.36898 L 479.70657,368 c 1.09034,-9.73674 0.47817,-9.33333 14.16328,-9.33333 13.52566,0 14.05796,0.33519 14.1119,8.88624 0.0166,2.63581 0.9148,2.96002 10.35154,3.73657 5.68334,0.46768 11.53334,0.96887 13,1.11376 2.11804,0.20923 2.80383,1.49785 3.33333,6.26342 0.36667,3.3 0.36667,9 0,12.66667 L 533.99996,398 l -13,0.38161 -13,0.38162 v 6.57174 6.57174 l -13.66667,0.37997 -13.66666,0.37998 -0.66667,5.98369 c -0.64411,5.78127 -0.84708,6.01546 -6,6.92316 -2.93333,0.51671 -8.78333,0.97405 -13,1.01631 l -7.66666,0.0768 v 5.85735 c 0,6.47388 -1.17632,7.47598 -8.77572,7.47598 -4.19685,0 -4.55762,0.32357 -4.55762,4.08766 0,7.0828 -2.03839,9.24568 -8.71357,9.24568 h -5.95309 v 6.04184 c 0,6.69604 -1.81348,8.11099 -10.92334,8.52281 -1.68136,0.076 -2.36119,1.54666 -2.66666,5.76868 -0.40897,5.65235 -0.42516,5.66835 -6.41,6.33333 l -6,0.66667 -0.66667,13.33333 -0.66666,13.33333 -6.29899,0.40499 -6.299,0.40498 -0.36767,20.26168 -0.36768,20.26168 -7,0.40302 -7,0.40301 v 149.93031 149.93031 h 5.73334 c 3.15333,0 6.45333,0.72 7.33333,1.6 1.08262,1.08263 1.6,7.28396 1.6,19.17783 0,20.43157 -0.702,19.573 14.93196,18.2623 7.20025,-0.60364 9.59486,-0.3555 10.50943,1.08905 0.65144,1.02895 1.19363,7.42082 1.20486,14.20415 l 0.0204,12.33334 h 5.06666 c 7.45526,0 8.26667,1.53119 8.26667,15.59999 v 12.4 h 14 14 v 13.33334 13.33333 h 13.26365 13.26365 l 0.40302,7 0.40301,7 6,0.66666 6,0.66667 0.40639,6.33333 0.40638,6.33334 h 26.41916 26.41915 l 0.82645,5.00001 c 0.45455,2.75 0.83305,9.05 0.84112,14 l 0.0147,9 h 150.62001 150.62001 l 0.37998,-13.6667 0.37998,-13.66665 26.33333,-0.36152 26.33333,-0.36152 v -6.63848 -6.63848 h 6.51116 c 7.13945,0 8.09901,-1.21851 8.1373,-10.33333 l 0.0182,-4.33333 h 13.33333 13.33333 v -13.33333 -13.33334 h 13.33334 13.33333 v -12.4 c 0,-7.86666 0.58495,-12.98494 1.6,-13.99999 0.88,-0.88 4.18,-1.6 7.33333,-1.6 h 5.73333 v -14 -14 h 13.33334 13.33331 l 0.1697,-4.33334 c 0.093,-2.38333 0.5433,-10.93333 1,-18.99999 l 0.8303,-14.66667 6,-0.66667 6,-0.66666 V 705.33329 561.99997 l -6,-0.66667 -6,-0.66667 -0.8303,-14.66666 c -0.4567,-8.06667 -0.9067,-16.91667 -1,-19.66667 -0.1618,-4.76952 -0.3797,-5 -4.7273,-5 -8.94721,0 -8.77571,0.4197 -8.77571,-21.47598 v -19.85735 h -12.58798 c -6.92339,0 -12.92618,-0.54723 -13.33955,-1.21607 -0.41336,-0.66883 -1.13647,-6.63862 -1.60691,-13.26619 l -0.85534,-12.05012 -5.47178,-0.40048 -5.47177,-0.40047 -0.40365,-6.26609 -0.40364,-6.26609 -6.92969,-0.40058 -6.92969,-0.40057 -0.40639,-6.33334 -0.40639,-6.33333 h -5.90154 c -6.33748,0 -6.71864,-0.5024 -7.58674,-10 l -0.36561,-4 -11.93056,-0.38909 c -6.56182,-0.214 -12.71182,-1.03747 -13.66667,-1.82993 -0.95485,-0.79246 -1.7361,-3.73449 -1.7361,-6.53785 v -5.09702 l -6.33333,-0.40639 -6.33333,-0.40638 -0.40639,-6.33334 c -0.46664,-7.27225 2.12878,-6.53285 -23.97139,-6.82918 -16.60058,-0.18848 -17.56511,-0.65849 -17.6018,-8.5772 l -0.0204,-4.40639 -6.33333,0.40639 -6.33334,0.40638 -0.66666,12.66667 -0.66667,12.66667 -6,0.66666 -6,0.66667 -0.38145,12.98667 c -0.4404,14.99326 0.54164,14.10826 -16.28521,14.67595 l -10,0.33738 -0.33738,10 c -0.18555,5.5 -0.64806,11.35428 -1.02779,13.00951 l -0.69041,3.0095 -88.30554,-0.34284 -88.30554,-0.34284 -0.44227,-4.66131 c -0.58966,-6.21468 -2.32411,-8.00536 -7.75399,-8.00536 -3.64269,0 -4.79259,-0.67379 -5.83674,-3.42013 -0.71518,-1.88107 -1.30033,-4.88107 -1.30033,-6.66667 0,-2.90206 -0.5694,-3.24653 -5.36634,-3.24653 -4.53356,0 -5.56812,-0.53075 -6.66666,-3.42013 -0.71519,-1.88107 -1.30034,-4.79583 -1.30034,-6.47723 0,-2.51371 -0.99615,-3.2685 -5.60442,-4.24653 -5.24791,-1.11378 -5.69677,-1.57113 -7.05601,-7.18944 -1.33946,-5.53655 -1.80772,-6.03309 -6.06224,-6.4284 -2.53586,-0.23561 -5.21066,-1.01296 -5.94399,-1.72744 -0.73333,-0.71448 -1.63333,-6.51388 -2,-12.88757 l -0.66667,-11.58853 -4.71195,-0.76065 c -6.76765,-1.0925 -7.95471,-2.19598 -7.95471,-7.39461 0,-4.88104 -0.3854,-5.18177 -8.33334,-6.50266 l -5,-0.83097 v -12.58085 c 0,-11.94321 0.15205,-12.61757 3,-13.30547 1.65,-0.39855 69,-0.55998 149.66666,-0.35874 l 146.66666,0.36589 0.40269,6.24268 0.40268,6.24267 6.93065,1.1002 6.93065,1.10021 0.38435,12.39796 0.38434,12.39796 5.58031,-0.40751 c 5.40838,-0.39495 5.61463,-0.58209 6.69412,-6.07417 l 1.11381,-5.66666 h 13.25486 c 13.15514,0 13.25487,0.0244 13.25487,3.24653 0,1.78559 0.58515,4.78559 1.30033,6.66667 1.26258,3.32082 1.64798,3.42013 13.27292,3.42013 h 11.97258 l 0.83097,5 c 1.31883,7.93548 1.50842,8.15108 7.55057,8.58645 5.73788,0.41344 5.73946,0.41503 6.40596,6.41355 l 0.66667,6 6,0.66666 6,0.66667 0.40075,6.19546 c 0.47611,7.36035 1.32279,7.75935 16.52258,7.78633 l 10.25667,0.0182 0.41,5.66403 c 0.40807,5.6374 0.44134,5.67062 7.07666,7.06477 6.63884,1.3949 6.66945,1.42552 7.33333,7.33597 0.66531,5.92308 0.67895,5.93659 6.66667,6.60189 l 6,0.66667 0.66667,6 0.66666,6 6.33333,0.40639 6.3333,0.40639 0.012,6.26027 c 0.01,3.44316 0.39,9.41028 0.8524,13.26028 l 0.8408,7 h 5.6716 c 6.9829,0 7.2903,0.67293 7.2903,15.95766 v 11.73956 l 5.9358,0.89012 c 5.701,0.85492 5.9793,1.11145 7.0356,6.48473 1.0673,5.4289 1.2765,5.61434 7.0642,6.26126 l 5.9644,0.66667 0.3716,19.27832 c 0.2578,13.37321 0.8705,19.59522 2,20.31291 0.8956,0.56903 3.8014,1.04379 6.4573,1.05502 l 4.8289,0.0204 0.752,17 c 0.6115,13.82593 0.4838,30.499 -0.2698,35.20822 -0.077,0.48118 -3.1435,1.28797 -6.8145,1.79285 l -6.6745,0.91798 0.3412,108.20714 0.3411,108.20713 6.1955,0.40076 c 7.2979,0.47207 7.3406,0.57266 6.719,15.82094 l -0.4438,10.88836 -6.5337,0.89861 -6.5337,0.89861 -0.3683,19.54636 -0.3683,19.54636 -6,0.66666 c -5.1989,0.57766 -6.0498,1.1117 -6.3733,4 -0.9652,8.61985 -1.3777,9.16169 -7.2996,9.59031 l -5.6604,0.40969 -0.7827,12.38263 c -0.4304,6.81044 -1.3349,12.93496 -2.01,13.61004 -0.6751,0.67508 -6.6229,1.40289 -13.2174,1.61737 l -11.98993,0.38996 -0.66666,12.66667 -0.66667,12.66666 -6,0.66667 -6,0.66667 -0.66667,6 c -0.65962,5.93664 -0.7277,6.00814 -6.44667,6.77136 -6.51705,0.86972 -8.17013,2.65795 -8.19957,8.8699 -0.0241,5.08291 -1.18972,5.52101 -16.02042,6.02136 l -10,0.33737 -0.40352,6.26315 -0.40352,6.2632 -6.26315,0.4035 -6.26314,0.4035 -0.40639,6.3333 c -0.22351,3.4834 -0.52351,6.4569 -0.66667,6.608 -0.14315,0.151 -15.26027,0.601 -33.59361,1 l -33.33333,0.7254 -0.66666,12.6666 -0.66667,12.6667 -176.37329,0.3382 c -140.41097,0.2693 -176.49601,0 -176.97517,-1.3333 z M 238.33332,820.41418 c -1.98005,-0.51744 -2.33643,-2.26046 -2.35375,-11.51199 -0.0112,-5.99623 -0.47109,-11.61089 -1.0219,-12.47702 -0.55082,-0.86614 -3.69163,-1.76614 -6.97959,-2 l -5.97809,-0.42522 v -67.33333 -67.33333 l 5.56282,-0.40492 c 3.05955,-0.22271 6.18446,-1.15395 6.94424,-2.06943 0.75978,-0.91548 1.55651,-7.03326 1.77051,-13.59508 l 0.38909,-11.93056 h 5.33334 5.33333 l 0.40352,6.26314 0.40352,6.26314 6.26315,0.40353 6.26314,0.40352 0.92868,8.66666 c 1.0966,10.23373 0.96891,129.49937 -0.15417,144 l -0.77451,10 -4.66667,0.40795 c -5.36891,0.46935 -7.99999,3.22242 -7.99999,8.3709 0,4.63245 -3.10853,6.01587 -9.66667,4.30204 z m 870.16318,-0.74756 c -0.6515,-0.93342 -0.8699,-45.66137 -0.4966,-101.66666 l 0.6667,-100 6.2842,-0.40438 6.2842,-0.40438 0.3825,13.07105 c 0.3756,12.83698 0.4421,13.07773 3.7158,13.44432 8.6198,0.96526 9.1617,1.37768 9.5903,7.29963 0.4058,5.60757 0.4688,5.67185 6.743,6.88389 3.4833,0.67291 6.3755,1.87291 6.4271,2.66667 0.052,0.79376 0.2016,30.48374 0.3333,65.97772 0.1535,41.35536 -0.2393,65.15618 -1.0937,66.26531 -0.7334,0.95193 -3.7334,1.91139 -6.6667,2.13214 l -5.3333,0.40136 -0.3815,12.19041 c -0.4428,14.15025 0,13.76113 -15.7886,13.79138 -6.1119,0.0117 -9.9185,-0.57658 -10.6667,-1.64846 z M 247.99999,371.99998 v -26.66667 h 27.33333 27.33333 v 26.66667 26.66666 h -27.33333 -27.33333 z m 805.33331,0 v -26.66667 h 27.3333 27.3333 v 26.66667 26.66666 h -27.3333 -27.3333 z"
         id="path3" />
      <path
         style="fill:#292727"
         d="m 507.99997,1067.3333 v -14 h -34 -34 v -13.3334 -13.3333 h -14 -13.99999 v -7.3333 -7.3334 h -6.66667 -6.66667 v -6.6666 -6.66669 h -14 -14 v -14 -14 H 357.33331 343.99998 V 957.33328 943.99994 H 330.71329 317.4266 l -0.37997,-13.66666 -0.37998,-13.66667 -7,-0.40301 -7,-0.40301 v -13.26366 -13.26365 h -6.66667 -6.66666 v -13.33333 -13.33333 h -20.66667 -20.66666 v -14 -14 h -6 -6 v -6.59699 -6.59699 l -7,-0.40301 -7,-0.40301 -0.40365,-6.26609 -0.40364,-6.2661 -6.92969,-0.40057 -6.92969,-0.40057 -0.42212,-62.66667 c -0.23217,-34.46666 -0.0198,-71.21666 0.47194,-81.66666 l 0.89407,-19 h 6.52806 6.52805 v -6.66666 -6.66667 h 7.33333 7.33334 v -6.66667 -6.66666 h 5.95335 5.95336 l 0.37997,-13.66667 0.37998,-13.66667 6.33333,-0.40638 6.33334,-0.40639 v -88.59361 -88.5936 h -6.66667 -6.66666 v -6.66667 -6.66667 h -6.66667 -6.66667 v -26.66666 -26.66667 h 6.66667 6.66667 v -14 -14 h 27.33333 27.33333 v 14 14 h 7.33333 7.33333 v 26.66667 26.66666 h -7.33333 -7.33333 v 6.66667 6.66667 h -7.33333 -7.33334 v 47.99999 48 h 7.33334 7.33333 v -14 -14 h 7.33333 7.33333 v -13.33333 -13.33333 h 6.66667 6.66667 v -6.66667 -6.66667 h 13.33333 13.33333 v -14 -13.99999 h 14 14 v -6.66667 -6.66667 h 6.66667 6.66666 v -6.66666 -6.66667 h 6.66667 6.66667 v -6.66667 -6.66666 h 6.66666 6.66667 v -6.66667 -6.66666 l 5.33333,-0.16667 c 2.93333,-0.0917 6.08333,-0.24167 7,-0.33333 1.01122,-0.10113 1.82649,-2.65738 2.07306,-6.5 l 0.40638,-6.33334 h 19.92695 19.92694 v -7.33333 -7.33333 h 20.66667 20.66666 v -13.33334 -13.33333 h 163.99999 163.99999 v 13.33333 13.33334 h 26.59699 26.59698 l 0.40302,7 0.40301,7 7.09621,0.40635 7.09622,0.40635 -0.3906,6.26031 -0.3906,6.26032 6.96105,0.40301 6.96105,0.40301 v 6.59699 6.59699 h 6.66667 6.66666 v 6.66666 6.66667 h 6.62075 6.62074 l 0.88436,6.66667 0.88437,6.66666 h 6.49489 6.49489 v 6.66667 6.66667 h 13.26366 13.26365 l 0.40301,7 0.40301,6.99999 6.00003,-0.0405 6,-0.0405 0.6666,6.70718 0.6667,6.70718 7,0.40301 7,0.40301 v 6.59699 6.59699 h 6.6667 6.6666 v 13.33333 13.33333 h 6.6667 6.6667 v 14 14 h 7.3333 7.3333 v -48 V 412 h -7.3333 -7.3333 v -6.66667 -6.66667 h -6.6667 -6.6667 V 372 345.33333 h 6.6667 6.6667 v -14 -14 h 27.3333 27.3333 v 14 14 h 6.6667 6.6667 V 372 398.66666 h -6.6667 -6.6667 V 405.33333 412 h -7.3333 -7.3333 v 88.66666 88.66666 h 14 14 v 14 14 h 6.6666 6.6667 v 6.66666 6.66667 h 7.3333 7.3334 v 6.66667 6.66666 h 6.6666 6.6667 v 82 81.99999 h -6.6184 -6.6184 l -0.3816,13 -0.3816,13 -7,0.40301 -7,0.40302 v 7.26365 7.26365 h -6.6667 -6.6666 v 6.66667 6.66667 h -19.9041 -19.904 l -0.8827,7.06459 c -0.4855,3.88552 -0.6786,9.73552 -0.4293,13 l 0.4534,5.9354 -6.3333,0.40639 -6.3334,0.40639 v 13.19374 13.19374 l -7.6381,0.39987 -7.6382,0.39987 -0.029,13.33333 -0.028,13.33334 -13,0.38161 -13,0.38162 v 13.28505 13.28505 h -14 -13.99999 v 14 14 h -13.26028 -13.26028 l -0.40639,6.33327 -0.40638,6.3334 -6.33334,0.4064 -6.33333,0.4063 v 7.2603 7.2603 h -14 -14 v 13.3333 13.3334 h -34 -33.99999 v 14 14 H 685.33329 507.99997 Z m 354.66665,-27.3334 0.66666,-12.6666 33.33333,-0.7254 c 18.33334,-0.399 33.45046,-0.849 33.59361,-1 0.14316,-0.1511 0.44316,-3.1246 0.66667,-6.608 l 0.40639,-6.3333 6.26314,-0.4035 6.26315,-0.4035 0.40352,-6.2632 0.40352,-6.26313 10,-0.33737 c 14.8307,-0.50035 15.99633,-0.93845 16.02042,-6.02136 0.0294,-6.21195 1.68252,-8.00018 8.19957,-8.8699 5.71897,-0.76322 5.78705,-0.83472 6.44667,-6.77136 l 0.66667,-6 6,-0.66667 6,-0.66667 0.66667,-12.66666 0.66666,-12.66667 11.98993,-0.38996 c 6.5945,-0.21448 12.5423,-0.94229 13.2174,-1.61737 0.6751,-0.67508 1.5796,-6.7996 2.01,-13.61004 l 0.7827,-12.38263 5.6604,-0.40969 c 5.9219,-0.42862 6.3344,-0.97046 7.2996,-9.59031 0.3235,-2.8883 1.1744,-3.42234 6.3733,-4 l 6,-0.66666 0.3683,-19.54636 0.3683,-19.54636 6.5337,-0.89861 6.5337,-0.89861 0.4438,-10.88836 c 0.6216,-15.24828 0.5789,-15.34887 -6.719,-15.82094 l -6.1955,-0.40076 -0.3411,-108.20713 -0.3412,-108.20714 6.6745,-0.91798 c 3.671,-0.50488 6.7375,-1.31167 6.8145,-1.79285 0.7536,-4.70922 0.8813,-21.38229 0.2698,-35.20822 l -0.752,-17 -4.8289,-0.0204 c -2.6559,-0.0112 -5.5617,-0.48599 -6.4573,-1.05502 -1.1295,-0.71769 -1.7422,-6.9397 -2,-20.31291 l -0.3716,-19.27832 -5.9644,-0.66667 c -5.7877,-0.64692 -5.9969,-0.83236 -7.0642,-6.26126 -1.0563,-5.37328 -1.3346,-5.62981 -7.0356,-6.48473 l -5.9358,-0.89012 v -11.73956 c 0,-15.28473 -0.3074,-15.95766 -7.2903,-15.95766 h -5.6716 l -0.8408,-7 c -0.4624,-3.85 -0.846,-9.81712 -0.8524,-13.26028 l -0.012,-6.26027 -6.3333,-0.40639 -6.33333,-0.40639 -0.66666,-6 -0.66667,-6 -6,-0.66667 c -5.98772,-0.6653 -6.00136,-0.67881 -6.66667,-6.60189 -0.66388,-5.91045 -0.69449,-5.94107 -7.33333,-7.33597 -6.63532,-1.39415 -6.66859,-1.42737 -7.07666,-7.06477 l -0.41,-5.66403 -10.25667,-0.0182 c -15.19979,-0.027 -16.04647,-0.42598 -16.52258,-7.78633 l -0.40075,-6.19546 -6,-0.66667 -6,-0.66666 -0.66667,-6 c -0.6665,-5.99852 -0.66808,-6.00011 -6.40596,-6.41355 -6.04215,-0.43537 -6.23174,-0.65097 -7.55057,-8.58645 l -0.83097,-5 h -11.97258 c -11.62494,0 -12.01034,-0.0993 -13.27292,-3.42013 -0.71518,-1.88108 -1.30033,-4.88108 -1.30033,-6.66667 0,-3.22211 -0.0997,-3.24653 -13.25487,-3.24653 h -13.25486 l -1.11381,5.66666 c -1.07949,5.49208 -1.28574,5.67922 -6.69412,6.07417 l -5.58031,0.40751 -0.38434,-12.39796 -0.38435,-12.39796 -6.93065,-1.10021 -6.93065,-1.1002 -0.40268,-6.24267 -0.40269,-6.24268 -146.66666,-0.36589 c -80.66666,-0.20124 -148.01666,-0.0398 -149.66666,0.35874 -2.84795,0.6879 -3,1.36226 -3,13.30547 v 12.58085 l 5,0.83097 c 7.94794,1.32089 8.33334,1.62162 8.33334,6.50266 0,5.19863 1.18706,6.30211 7.95471,7.39461 l 4.71195,0.76065 0.66667,11.58853 c 0.36667,6.37369 1.26667,12.17309 2,12.88757 0.73333,0.71448 3.40813,1.49183 5.94399,1.72744 4.25452,0.39531 4.72278,0.89185 6.06224,6.4284 1.35924,5.61831 1.8081,6.07566 7.05601,7.18944 4.60827,0.97803 5.60442,1.73282 5.60442,4.24653 0,1.6814 0.58515,4.59616 1.30034,6.47723 1.09854,2.88938 2.1331,3.42013 6.66666,3.42013 4.79694,0 5.36634,0.34447 5.36634,3.24653 0,1.7856 0.58515,4.7856 1.30033,6.66667 1.04415,2.74634 2.19405,3.42013 5.83674,3.42013 5.42988,0 7.16433,1.79068 7.75399,8.00536 l 0.44227,4.66131 88.30554,0.34284 88.30554,0.34284 0.69041,-3.0095 c 0.37973,-1.65523 0.84224,-7.50951 1.02779,-13.00951 l 0.33738,-10 10,-0.33738 c 16.82685,-0.56769 15.84481,0.31731 16.28521,-14.67595 l 0.38145,-12.98667 6,-0.66667 6,-0.66666 0.66667,-12.66667 0.66666,-12.66667 6.21319,-0.40148 6.21319,-0.40148 0.91681,9.78377 c 1.46996,15.68663 1.22102,16.28166 -7.00985,16.75554 l -7,0.40301 v 13.26365 13.26366 h -6.59699 -6.59699 l -0.40301,7 -0.40301,7 -6.33334,0.40639 -6.33333,0.40638 v 6.59361 6.59362 h -7.33333 -7.33333 v 6.66666 6.66667 h -88.66667 -88.66666 v -6.66667 -6.66666 H 602.66663 589.3333 v -6.59699 -6.59699 l -6.8905,-0.40301 -6.8905,-0.40301 -0.1095,-6.66667 -0.1095,-6.66667 -7,-0.40301 -7,-0.40301 V 411.9303 398.66664 h -6.66667 -6.66666 v -7.33333 -7.33333 h -6.59001 -6.59 l -0.40999,-5.66667 c -0.32788,-4.53169 -0.94411,-5.71943 -3.07667,-5.93009 -1.46666,-0.14489 -7.31666,-0.64608 -13,-1.11376 -9.43674,-0.77655 -10.33491,-1.10076 -10.35154,-3.73657 -0.0539,-8.55105 -0.58624,-8.88624 -14.1119,-8.88624 -13.68511,0 -13.07294,-0.40341 -14.16328,9.33333 l -0.37328,3.33333 -19.66666,0.36898 -19.66667,0.36898 -0.0204,4.29769 c -0.0295,6.20137 -1.68508,7.99027 -8.19958,8.85965 -5.71897,0.76322 -5.78704,0.83472 -6.44667,6.77137 l -0.66667,6 -6,0.66666 -6,0.66667 -0.66666,6 -0.66667,6 -13,1.1627 -13,1.1627 v 5.00737 c 0,6.04811 -1.70689,7.66674 -8.68357,8.23454 -5.23241,0.42585 -5.32696,0.52751 -5.9831,6.43269 -0.65612,5.90509 -0.75075,6.00684 -5.98269,6.43266 -6.20625,0.50511 -7.30253,1.78641 -7.33022,8.56734 -0.0196,4.79862 -0.20397,5 -4.57803,5 -8.55748,0 -8.77572,0.35171 -8.77572,14.14265 v 12.52401 l -5,0.0204 c -2.75,0.0112 -5.72577,0.48166 -6.61282,1.04541 -1.0264,0.65231 -1.7536,5.61052 -2,13.63643 l -0.38718,12.61144 -6.28669,1.14553 -6.28668,1.14554 -0.37998,12.86428 -0.37998,12.86428 -6.66667,0.66667 -6.66666,0.66666 v 26 26 l 6.66666,0.66667 6.66667,0.66666 0.66666,12.64855 0.66667,12.64854 5.0678,0.81925 c 6.4316,1.03973 7.32539,2.01411 7.8431,8.55033 0.41618,5.25441 0.51122,5.3432 6.42243,6 l 6,0.66667 v 94.66666 94.66666 l -6,0.66666 -6,0.66667 -0.66666,6 -0.66667,6 -6.33333,0.40639 -6.33334,0.40639 v 5.76368 c 0,6.81079 -1.54437,8.40982 -8.68357,8.99085 -5.19517,0.42282 -5.3256,0.55824 -5.71852,5.93755 -0.36242,4.9618 -0.0604,5.59062 3.06132,6.37413 1.90488,0.47809 4.02342,0.52316 4.70787,0.10014 0.68445,-0.42301 2.45686,-0.12026 3.93868,0.67279 2.51206,1.34441 2.69422,2.74101 2.69422,20.65527 v 19.21336 l 6.33334,0.40639 6.33333,0.40639 0.40639,6.33333 0.40639,6.33334 4.92694,0.0204 c 2.70982,0.0112 5.65272,0.48167 6.53977,1.04541 1.02658,0.65243 1.75355,5.61263 2,13.64625 l 0.38718,12.62126 12.66666,0.66666 12.66667,0.66667 0.66666,12.66667 0.66667,12.66666 5.33333,0.40136 c 6.23917,0.46952 8.66667,3.04272 8.66667,9.18681 0,4.10466 0.30717,4.41183 4.41183,4.41183 6.14409,0 8.71729,2.42751 9.18681,8.66667 l 0.40136,5.33333 11.26688,0.39157 c 6.19679,0.21536 12.04679,1.03883 13,1.82992 0.95322,0.7911 1.73312,3.7439 1.73312,6.5618 v 5.1235 l 13.66666,0.3799 13.66667,0.38 0.66667,6.6667 0.66666,6.6666 26.66667,0.6667 26.66666,0.6667 0.35816,11.3333 c 0.19698,6.2333 0.62899,12.0855 0.96003,13.0049 0.47916,1.3307 36.5642,1.6026 176.97517,1.3333 l 176.37329,-0.3382 z M 561.3333,957.33328 v -13.33334 h -26.66667 -26.66666 v -13.33333 -13.33333 l -17.66667,-0.0182 c -25.30905,-0.0261 -23.66666,0.99643 -23.66666,-14.73429 v -13.10814 l -7,-0.40301 -7,-0.40302 -0.0955,-6 -0.0955,-6 -6.23787,-0.40638 -6.23787,-0.40639 v -6.59361 -6.59361 h -7.33333 -7.33333 V 841.99995 821.33328 H 411.99998 398.66664 V 718.66662 615.99996 h 13.33334 13.33333 v -19.85185 c 0,-15.0256 0.40519,-19.8368 1.66666,-19.78995 0.91667,0.034 7.21667,-0.0326 14,-0.14815 l 12.33334,-0.21004 v -14 -14 h 13.28668 13.28669 l 0.37998,-13.66667 0.37998,-13.66666 10,-0.0104 c 5.5,-0.006 14.35,-0.15574 19.66666,-0.33333 l 9.66667,-0.3229 V 507.3333 494.66664 h 185.33332 185.33332 v 12.5 12.5 l 4.16667,0.83333 c 2.29167,0.45833 8.29167,0.83333 13.33333,0.83333 h 9.16667 v 6.66667 6.66666 h 6.66666 6.66667 v 6.66667 6.66667 h 6.66667 6.66666 v 6.66666 6.66667 h 7.33334 7.33333 v 7.28505 7.28505 l 13,0.38162 13,0.38161 0.36858,19.59821 0.36859,19.59821 6.60003,0.40179 6.60004,0.40179 0.36471,101.99999 0.36471,102 -7,0.40301 -7,0.40301 v 20.59699 20.59699 h -6.66666 -6.66667 v 6.66666 6.66667 h -6.66666 -6.66667 v 6.66666 6.66667 h -7.33333 -7.33334 v 13.74479 13.74479 l -17.66666,0.22458 c -9.71667,0.12352 -19.01667,0.23837 -20.66667,0.25521 -2.90907,0.0297 -3,0.43477 -3,13.36396 v 13.33333 h -26.66666 -26.66667 v 13.33334 13.33333 H 705.33329 561.3333 Z m 188.95318,-80.85772 c 2.90195,-0.72834 3.04681,-1.35785 3.04681,-13.24018 V 850.7599 l 13.66666,-0.37997 13.66667,-0.37998 0.37844,-14.33333 0.37844,-14.33334 h -14.71177 -14.71177 v 14 14 h -47.33334 -47.33333 v 13.11111 c 0,7.21111 0.3494,13.46051 0.77645,13.88756 1.01002,1.01002 88.18355,1.14584 92.17674,0.14361 z m -95.95319,-26.64933 c 2.86688,-0.76829 3,-1.41831 3,-14.64845 v -13.8445 h -14 -13.99999 v 13.77778 c 0,7.57778 0.4,14.17778 0.88888,14.66667 1.10466,1.10465 20.02805,1.14272 24.11111,0.0485 z m -91.66666,-89.82628 v -6.66666 h 6.66667 6.66667 v -6.66667 -6.66666 h 6.66666 6.66667 v -6.59362 -6.59361 l 6.33333,-0.40639 6.33333,-0.40638 0.36807,-20.33334 0.36806,-20.33333 h -6.63172 -6.63171 l -0.40302,-7 -0.40301,-7 -6.33333,-0.40638 -6.33333,-0.40639 v -6.59361 -6.59362 h -6.66667 -6.66667 v -6.66666 -6.66667 H 541.3333 519.99997 v 6.59361 6.59361 l -6.33333,0.40639 -6.33334,0.40639 -0.40352,6.26315 -0.40352,6.26314 -6.26314,0.40352 -6.26315,0.40352 -0.40301,7 -0.40301,7 h -6.59699 -6.59699 v 20.66667 20.66666 h 6.66667 6.66666 v 6.66667 6.66667 h 6.66667 6.66667 v 6.66666 6.66667 h 6.66666 6.66667 v 6.66666 6.66667 h 21.33333 21.33333 z m 313.33332,0 v -6.66666 h 6.66666 6.66667 v -6.66667 -6.66666 h 6.66667 6.66666 v -6.59699 -6.59699 l 7,-0.40301 7,-0.40301 0.36768,-20.26246 0.36768,-20.26247 -7.03434,-0.4042 -7.03435,-0.4042 -0.40301,-7 -0.40302,-7 h -6.59698 -6.59699 v -6.66667 -6.66667 h -6.66667 -6.66666 v -6.66666 -6.66667 h -20.66667 -20.66666 v 6.59699 6.59699 l -6.96105,0.40301 -6.96105,0.40301 0.39035,6.25636 0.39036,6.25636 -6.42931,0.41031 -6.4293,0.4103 -0.40301,7 -0.40302,7 h -7.29838 -7.29838 l 0.36806,20.33333 0.36806,20.33334 7,0.40301 7,0.40301 v 6.59699 6.59699 h 6.55059 6.55059 l -0.21726,6.33333 -0.21725,6.33333 7,0.40301 7,0.40302 v 6.59698 6.59699 h 20.66666 20.66667 z m -630.10901,60.52402 c 1.20309,-0.46167 2.10905,-2.3568 2.10905,-4.41183 0,-8.04744 0.90681,-8.30264 29.04755,-8.17483 l 25.61911,0.11635 v -6.69352 -6.69352 h 7.33333 7.33333 v -75.33333 -75.33333 h -7.33333 -7.33333 V 630.66663 617.3333 h -27.33333 -27.33333 l 0.002,7 0.002,7 h -5.66839 -5.66839 l -0.38909,11.93056 c -0.214,6.56182 -1.01073,12.6796 -1.77051,13.59508 -0.75978,0.91548 -3.88469,1.84672 -6.94424,2.06943 l -5.56282,0.40492 v 67.33333 67.33333 l 5.97809,0.42522 c 3.28796,0.23386 6.42877,1.13386 6.97959,2 0.55081,0.86613 1.01067,6.48079 1.0219,12.47702 0.0173,9.25153 0.3737,10.99455 2.35375,11.51199 3.6622,0.95704 5.28816,0.98066 7.55762,0.10979 z m 885.72756,-0.0185 c 2.736,-0.73353 2.9797,-1.68242 3.3333,-12.98179 l 0.3815,-12.19041 5.3333,-0.40136 c 2.9333,-0.22075 5.9333,-1.18021 6.6667,-2.13214 0.8544,-1.10913 1.2472,-24.90995 1.0937,-66.26531 -0.1317,-35.49398 -0.2817,-65.18396 -0.3333,-65.97772 -0.052,-0.79376 -2.9438,-1.99376 -6.4271,-2.66667 -6.2742,-1.21204 -6.3372,-1.27632 -6.743,-6.88389 -0.4286,-5.92195 -0.9705,-6.33437 -9.5903,-7.29963 -3.2705,-0.36624 -3.3405,-0.61688 -3.714,-13.29344 l -0.3807,-12.92016 -20.6193,-0.0833 -20.6194,-0.0833 v 6.67016 6.67017 h -6 -6 v 81.99999 82 h 6.7767 6.7767 L 1081.11,801 l -0.4434,6.33334 13,0.38161 13,0.38162 v 5.01838 c 0,2.76011 0.72,5.73838 1.6,6.61838 1.6663,1.66629 18.002,2.20649 23.3519,0.77221 z M 302.66665,371.99998 v -26.66667 h -27.33333 -27.33333 v 26.66667 26.66666 h 27.33333 27.33333 z m 805.33325,0 v -26.66667 h -27.3333 -27.3333 v 26.66667 26.66666 h 27.3333 27.3333 z"
         id="path2" />
    </g>
  </g>
</svg>
